<svg width="2800" height="518" viewBox="0 0 2800 518" fill="none" xmlns="http://www.w3.org/2000/svg">
<path d="M650.954 6.55229H704.051V482.111H650.954V6.55229ZM244.108 434.865C138.948 434.865 53.4417 349.686 53.4417 244.159C53.4417 138.633 138.604 53.4529 244.108 53.4529C294.447 53.4529 340.303 73.1098 374.437 105.182L411.673 66.5575C368.231 25.5195 309.272 0 244.108 0C109.297 0 0 109.32 0 244.159C0 378.998 109.297 488.318 244.108 488.318C310.307 488.318 370.299 462.109 414.087 419.347L376.505 381.068C342.372 414.519 295.826 434.865 244.108 434.865ZM2170.08 145.875C2069.75 145.875 1998.03 218.295 1998.03 317.269C1998.03 417.622 2070.43 488.663 2176.63 488.663C2257.65 488.663 2302.82 453.143 2317.65 437.624L2285.93 398.655C2275.58 407.622 2241.45 440.038 2177.32 440.038C2108.71 440.038 2060.09 400.035 2051.82 337.271H2340.4C2341.09 330.718 2341.78 324.856 2341.78 317.269C2341.44 218.295 2271.1 145.875 2170.08 145.875ZM2052.16 293.129C2061.82 232.779 2107.67 194.155 2170.08 194.155C2232.83 194.155 2278.69 232.434 2287.99 293.129H2052.16ZM1119.52 145.875C1019.18 145.875 947.47 218.295 947.47 317.269C947.47 417.622 1019.87 488.663 1126.07 488.663C1207.09 488.663 1252.26 453.143 1267.09 437.624L1235.37 398.655C1225.02 407.622 1190.89 440.038 1126.76 440.038C1058.15 440.038 1009.53 400.035 1001.26 337.271H1289.5C1290.19 330.718 1290.88 324.856 1290.88 317.269C1290.88 218.295 1220.54 145.875 1119.52 145.875ZM1001.6 293.129C1011.25 232.779 1057.11 194.155 1119.52 194.155C1182.27 194.155 1228.12 232.434 1237.43 293.129H1001.6ZM2757.94 145.875C2704.15 145.875 2653.12 189.327 2635.88 233.469V152.082H2582.79V482.111H2635.88V340.374C2635.88 260.367 2678.64 196.224 2753.8 196.224C2771.73 196.224 2784.48 198.293 2800 203.121V151.048C2788.28 148.289 2777.93 145.875 2757.94 145.875ZM1645.31 408.311L1522.57 152.082H1464.3L1644.97 517.286L1825.98 152.082H1768.4L1645.31 408.311Z" fill="white"/>
</svg>
