<svg width="2788" height="328" viewBox="0 0 2788 328" fill="none" xmlns="http://www.w3.org/2000/svg">
<path d="M221.43 92.4828L442.924 0.000976562L221.43 327.405V92.4828Z" fill="white"/>
<path d="M221.446 92.4831L442.924 0.00125997H0L221.446 92.4831ZM1327.69 3.48898C1327.8 2.5377 1328.24 1.65752 1328.95 1.01486C1329.66 0.372196 1330.58 0.0116026 1331.54 0.00125997H1425.02C1426.95 0.00125997 1429.24 1.39307 1430.16 3.07962L1548.25 224.771C1549.17 226.457 1550.1 227.849 1550.35 227.849C1550.59 227.849 1550.97 226.294 1551.13 224.361L1570.78 3.48898C1570.89 2.54322 1571.33 1.66749 1572.03 1.02557C1572.74 0.383657 1573.65 0.0195169 1574.6 0.00125997H1641.46C1643.39 0.00125997 1644.83 1.55682 1644.66 3.48898L1616.22 323.786C1616.12 324.735 1615.67 325.613 1614.97 326.255C1614.26 326.897 1613.34 327.259 1612.39 327.274H1523.53C1522.49 327.216 1521.47 326.906 1520.58 326.37C1519.68 325.833 1518.93 325.087 1518.39 324.195L1395.56 94.2516C1394.65 92.565 1393.71 91.1732 1393.42 91.1732C1393.12 91.1732 1392.8 92.7287 1392.63 94.6609L1372.28 323.819C1372.18 324.767 1371.74 325.647 1371.03 326.292C1370.33 326.938 1369.42 327.304 1368.46 327.323H1302.41C1301.96 327.332 1301.52 327.246 1301.1 327.07C1300.69 326.895 1300.32 326.633 1300.02 326.303C1299.71 325.973 1299.48 325.583 1299.34 325.157C1299.2 324.732 1299.15 324.281 1299.2 323.835L1327.69 3.4726V3.48898ZM1988.15 3.48898C1988.25 2.54047 1988.7 1.66252 1989.4 1.02023C1990.11 0.377943 1991.02 0.0155704 1991.98 0.00125997H2061.01C2061.46 -0.011486 2061.91 0.0725988 2062.32 0.247766C2062.73 0.422933 2063.1 0.685052 2063.4 1.0162C2063.7 1.34735 2063.93 1.73973 2064.07 2.1665C2064.2 2.59327 2064.24 3.04438 2064.19 3.48898L2040.91 257.503C2040.86 257.946 2040.91 258.394 2041.05 258.817C2041.19 259.24 2041.41 259.629 2041.71 259.959C2042.01 260.288 2042.38 260.55 2042.79 260.728C2043.2 260.906 2043.64 260.995 2044.08 260.991H2177.81C2178.26 260.98 2178.7 261.066 2179.11 261.243C2179.53 261.421 2179.9 261.685 2180.2 262.017C2180.5 262.35 2180.72 262.744 2180.85 263.171C2180.99 263.599 2181.03 264.05 2180.97 264.495L2175.53 323.786C2175.43 324.733 2174.99 325.611 2174.29 326.254C2173.59 326.896 2172.67 327.259 2171.72 327.274H1961.96C1961.52 327.286 1961.07 327.202 1960.66 327.027C1960.25 326.852 1959.88 326.59 1959.58 326.259C1959.27 325.928 1959.05 325.535 1958.91 325.109C1958.78 324.682 1958.73 324.231 1958.79 323.786L1988.15 3.50535V3.48898ZM1928.97 297.473C1888.46 318.595 1845.2 327.405 1801.45 327.405C1708.39 327.405 1645.97 263.578 1654.36 163.695C1662.71 63.8118 1735.82 0.00125997 1828.84 0.00125997C1875.18 0.00125997 1914.87 10.6445 1942.22 38.0714C1942.71 38.5627 1943.15 39.3159 1943.15 40.0036C1943.15 40.9861 1942.22 42.1159 1942.22 42.1159L1897.19 89.6831C1896.49 90.4022 1895.54 90.838 1894.54 90.9074C1893.54 90.9769 1892.55 90.6752 1891.75 90.0597C1891.75 90.0597 1880.57 79.1217 1864.05 71.3439C1852.6 65.9568 1837.14 63.3697 1823.54 63.3697C1767.54 63.3697 1727.39 105.599 1722.54 163.695C1717.69 221.758 1750.75 264.036 1806.75 264.036C1835.38 264.036 1857.14 255.685 1869.93 248.645L1873.82 201.912C1873.88 201.425 1873.83 200.932 1873.68 200.465C1873.53 199.997 1873.29 199.566 1872.96 199.2C1872.64 198.834 1872.24 198.541 1871.79 198.339C1871.34 198.138 1870.86 198.033 1870.37 198.032H1824.36C1823.88 198.03 1823.41 197.928 1822.97 197.733C1822.54 197.537 1822.15 197.253 1821.83 196.898C1821.51 196.543 1821.27 196.126 1821.13 195.672C1820.98 195.219 1820.93 194.739 1820.98 194.266L1825.68 138.462C1825.77 137.445 1826.23 136.496 1826.97 135.797C1827.71 135.099 1828.69 134.7 1829.71 134.68H1939.01C1940.97 134.68 1942.5 136.35 1942.3 138.446L1928.97 297.473ZM1111.89 3.11237C1112.41 2.21116 1113.14 1.4539 1114.03 0.910246C1114.91 0.366595 1115.92 0.054014 1116.95 0.00125997H1167.4C1169.34 0.00125997 1171.4 1.47494 1172.02 3.32524L1279.34 323.95C1279.96 325.751 1278.9 327.29 1276.96 327.29H1206.95C1205.95 327.24 1204.99 326.897 1204.18 326.302C1203.38 325.708 1202.77 324.89 1202.43 323.95L1182.81 260.221C1182.48 259.276 1181.87 258.453 1181.06 257.858C1180.26 257.262 1179.29 256.922 1178.29 256.881H1060.92C1059.89 256.941 1058.9 257.265 1058.03 257.821C1057.16 258.378 1056.45 259.148 1055.96 260.057L1026.27 324.114C1025.79 325.025 1025.07 325.795 1024.2 326.351C1023.33 326.908 1022.33 327.231 1021.3 327.29H953.113C951.181 327.29 950.313 325.882 951.181 324.163L1111.89 3.11237ZM1133.23 95.7907C1132.71 93.9404 1131.59 93.8586 1130.77 95.627L1086.56 191.531C1085.75 193.25 1086.69 194.691 1088.58 194.691H1159.07C1161 194.691 1162.1 193.169 1161.57 191.318L1133.25 95.7907H1133.23ZM630.933 81.3814C630.15 82.1023 629.122 82.4984 628.058 82.4892C626.994 82.4801 625.973 82.0665 625.202 81.3323C625.202 81.3323 615.214 71.8024 605.357 68.4293C596.244 65.1799 586.655 63.4646 576.98 63.3533C571.41 63.3784 565.857 63.9765 560.409 65.1381C554.704 66.274 549.165 68.1224 543.92 70.6399C538.896 72.9832 534.426 76.3652 530.805 80.5627C527.301 84.6562 525.237 89.6504 524.713 95.5287C523.846 104.944 526.94 112.1 533.965 117.077C541.006 122.088 550.044 126.329 561.179 129.816C572.281 133.353 584.218 136.857 597.039 140.394C609.827 143.931 621.682 148.909 632.489 155.36C643.296 161.812 651.942 170.49 658.475 181.297C664.975 192.153 667.366 206.677 665.68 224.853C664.075 242.16 659.179 257.257 651.106 270.16C643.179 282.927 632.644 293.875 620.192 302.287C607.196 311.006 592.786 317.405 577.602 321.199C561.719 325.292 545.181 327.372 527.988 327.372C506.407 327.372 486.676 324.277 468.828 318.104C450.931 311.947 423.144 290.563 423.144 290.563C422.738 290.281 422.402 289.909 422.163 289.477C421.923 289.044 421.787 288.562 421.763 288.069C421.739 287.575 421.829 287.082 422.026 286.629C422.223 286.176 422.521 285.774 422.898 285.454L474.248 237.183C474.626 236.828 475.07 236.552 475.556 236.37C476.041 236.189 476.558 236.105 477.076 236.125C477.594 236.145 478.103 236.267 478.573 236.485C479.043 236.704 479.466 237.013 479.815 237.395C479.815 237.395 492.554 251.166 503.492 256.259C514.43 261.4 525.991 263.954 538.206 263.954C544.117 263.954 550.241 263.299 556.463 261.99C562.669 260.68 568.335 258.698 573.443 256.013C578.536 253.393 582.777 250.02 586.101 245.943C589.474 241.833 591.406 236.986 591.946 231.435C592.814 222.053 589.687 214.619 582.531 209.183C575.375 203.746 566.206 199.145 554.973 195.33C542.902 191.256 530.744 187.445 518.508 183.901C505.883 180.282 493.755 175.112 482.402 168.509C471.633 162.266 462.541 153.5 455.909 142.965C449.261 132.404 446.706 118.518 448.311 101.211C449.867 84.4597 454.763 69.8211 462.95 57.1966C471.074 44.6681 481.638 33.9037 494.012 25.5451C506.554 17.0305 520.702 10.6445 536.421 6.38722C552.14 2.12991 568.138 0.00125997 584.381 0.00125997C603.179 0.00125997 621.06 2.50652 638.122 7.4843C655.151 12.4621 679.942 30.2609 679.942 30.2609C681.71 31.5381 681.841 33.765 680.269 35.2387L630.933 81.3814ZM913.373 86.5393C912.53 87.1754 911.475 87.4653 910.425 87.3496C909.375 87.234 908.409 86.7215 907.724 85.9171C907.724 85.9171 903.794 81.1849 899.963 78.0574C896.038 74.8535 891.725 72.1577 887.125 70.034C877.71 65.6457 866.575 63.4679 853.738 63.4679C840.819 63.4679 828.685 65.9732 817.305 70.951C805.962 75.9089 795.677 83.0022 787.013 91.8445C777.954 101.108 770.613 111.909 765.333 123.742C759.614 136.397 756.135 149.948 755.05 163.793C753.773 178.481 754.837 191.891 758.325 204.057C761.829 216.223 767.135 226.801 774.208 235.725C781.364 244.682 789.993 251.625 800.276 256.652C810.825 261.704 822.393 264.265 834.089 264.135C848.105 264.135 860.812 261.22 872.126 255.342C876.875 252.869 882.737 248.137 887.944 243.454C895.099 236.986 898.358 233.531 898.358 233.531C899.1 232.771 900.095 232.31 901.154 232.235C902.213 232.159 903.263 232.475 904.105 233.122L951.263 270.914C951.665 271.232 951.999 271.627 952.246 272.077C952.492 272.526 952.646 273.02 952.698 273.53C952.75 274.04 952.699 274.556 952.548 275.045C952.397 275.535 952.15 275.99 951.82 276.383C951.82 276.383 948.938 279.838 946.089 282.85C933.348 296.405 917.893 307.123 900.732 314.305C900.65 314.338 900.536 314.42 900.405 314.42C879.56 323.147 858.503 327.503 837.298 327.503C812.982 327.503 790.959 323.671 771.13 316.041C751.317 308.427 734.566 297.489 720.861 283.26C707.221 269.014 697.069 251.756 690.536 231.566C683.953 211.328 681.775 188.764 683.904 163.793C686.082 138.888 692.222 116.308 702.325 96.0363C711.96 76.4091 725.331 58.85 741.689 44.3428C758.098 29.97 777.091 18.8506 797.656 11.5779C818.779 3.91471 841.539 0.0995056 865.773 0.0995056C874.55 0.0995056 883.588 0.918219 893.004 2.5229C902.386 4.12758 911.506 6.68196 920.43 10.2188C929.433 13.7996 937.936 18.5271 945.729 24.2843C953.703 30.1627 964.15 42.82 964.15 42.82C964.479 43.212 964.726 43.6671 964.873 44.1575C965.021 44.6478 965.067 45.1632 965.009 45.6721C964.951 46.1809 964.789 46.6725 964.535 47.1168C964.28 47.5612 963.937 47.9489 963.528 48.2562L913.373 86.5393ZM2737.32 81.3814C2736.54 82.0976 2735.51 82.4907 2734.45 82.4816C2733.39 82.4725 2732.37 82.0618 2731.6 81.3323C2731.6 81.3323 2721.62 71.8024 2711.74 68.4293C2702.63 65.179 2693.04 63.4637 2683.37 63.3533C2677.8 63.3784 2672.24 63.9765 2666.8 65.1381C2661.09 66.2757 2655.55 68.124 2650.31 70.6399C2645.28 72.9858 2640.81 76.3674 2637.19 80.5627C2633.64 84.7867 2631.51 90.0237 2631.1 95.5287C2630.25 104.944 2633.33 112.1 2640.37 117.077C2647.39 122.088 2656.43 126.329 2667.58 129.816C2678.68 133.353 2690.6 136.857 2703.44 140.394C2716.23 143.931 2728.07 148.909 2738.89 155.36C2749.7 161.812 2758.34 170.49 2764.88 181.297C2771.38 192.153 2773.75 206.677 2772.07 224.853C2770.46 242.16 2765.58 257.257 2757.51 270.16C2749.59 282.93 2739.05 293.879 2726.59 302.287C2713.59 311.004 2699.18 317.403 2683.99 321.199C2667.78 325.354 2651.12 327.429 2634.39 327.372C2612.81 327.372 2593.08 324.277 2575.23 318.104C2557.33 311.947 2529.53 290.563 2529.53 290.563C2529.13 290.279 2528.79 289.906 2528.56 289.474C2528.32 289.042 2528.18 288.561 2528.16 288.068C2528.14 287.576 2528.22 287.084 2528.42 286.631C2528.61 286.178 2528.91 285.775 2529.28 285.454L2580.65 237.183C2581.03 236.83 2581.47 236.556 2581.96 236.376C2582.44 236.196 2582.95 236.114 2583.47 236.133C2583.99 236.153 2584.49 236.275 2584.96 236.491C2585.43 236.708 2585.85 237.015 2586.2 237.395C2586.2 237.395 2598.96 251.166 2609.89 256.259C2620.83 261.4 2632.38 263.954 2644.59 263.954C2650.52 263.954 2656.64 263.299 2662.85 261.99C2669.05 260.68 2674.74 258.698 2679.83 256.013C2684.7 253.568 2689.02 250.139 2692.5 245.943C2695.87 241.81 2697.91 236.751 2698.35 231.435C2699.2 222.053 2696.07 214.619 2688.92 209.183C2681.76 203.746 2672.59 199.145 2661.38 195.33C2649.3 191.256 2637.14 187.445 2624.89 183.901C2612.27 180.279 2600.14 175.109 2588.79 168.509C2578.03 162.261 2568.94 153.496 2562.31 142.965C2555.65 132.404 2553.09 118.518 2554.7 101.211C2556.27 84.4597 2561.16 69.8211 2569.34 57.1966C2577.48 44.6694 2588.05 33.9058 2600.43 25.5451C2612.97 17.0305 2627.12 10.6445 2642.82 6.38722C2658.54 2.12991 2674.52 0.00125997 2690.77 0.00125997C2709.56 0.00125997 2727.46 2.50652 2744.52 7.4843C2761.54 12.4621 2786.34 30.2609 2786.34 30.2609C2788.11 31.5381 2788.23 33.765 2786.67 35.2387L2737.32 81.3814ZM2351.77 3.22699C2352.28 2.32273 2353.02 1.56221 2353.9 1.01561C2354.78 0.469017 2355.79 0.153957 2356.83 0.0995056H2407.3C2409.23 0.0995056 2411.27 1.57319 2411.9 3.42348L2519.23 324.032C2519.84 325.849 2518.77 327.372 2516.84 327.372H2446.86C2445.86 327.327 2444.89 326.987 2444.09 326.396C2443.28 325.804 2442.67 324.987 2442.32 324.048L2422.7 260.303C2422.37 259.361 2421.76 258.542 2420.95 257.949C2420.15 257.357 2419.18 257.019 2418.19 256.979H2300.83C2299.8 257.035 2298.8 257.355 2297.93 257.909C2297.06 258.462 2296.34 259.23 2295.85 260.139L2266.17 324.212C2265.67 325.119 2264.96 325.885 2264.09 326.438C2263.22 326.991 2262.22 327.313 2261.19 327.372H2192.97C2191.04 327.372 2190.17 325.98 2191.04 324.261L2351.77 3.21062V3.22699ZM2373.16 95.9053C2372.63 94.0551 2371.52 93.9732 2370.7 95.7416L2326.49 191.629C2325.67 193.365 2326.6 194.806 2328.5 194.806H2398.98C2400.91 194.806 2402.02 193.283 2401.5 191.433L2373.16 95.9053Z" fill="white"/>
</svg>
