<svg width="1473" height="366" viewBox="0 0 1473 366" fill="none" xmlns="http://www.w3.org/2000/svg">
<path d="M1372 279.966L1372.19 279.586L1366.11 270.175H1365.92L1360.69 278.635V278.825L1372 279.871V279.966ZM1359.36 247.454L1359.17 247.834L1365.73 259.812H1366.11L1372 248.215L1371.81 247.834L1359.36 247.454ZM1354.13 249.736L1353.94 249.926L1354.8 277.399L1354.99 277.59L1362.31 264.756V264.376L1354.13 249.831V249.736ZM1378.75 278.73V248.88L1378.56 248.69L1369.72 264.661V265.041L1378.36 279.111L1378.75 278.73ZM1336.55 172.258H1336.17L1336.65 185.472L1340.45 192.221C1341.87 194.503 1352.04 242.891 1352.04 242.891L1364.87 236.426C1363.58 234.736 1362.91 232.656 1362.97 230.532C1362.97 229.487 1363.16 228.631 1363.35 227.776C1362.88 227.585 1359.74 227.3 1359.17 226.35C1358.45 221.866 1358.58 217.287 1359.55 212.85L1358.69 211.329C1356.98 208.858 1349.48 200.777 1349.67 199.351C1349.67 198.115 1351.09 196.404 1351.09 196.404L1336.55 172.258ZM1270.41 317.897C1270.22 317.232 1268.89 305.444 1268.7 302.402C1255.02 301.166 1248.56 299.93 1246.85 297.933C1244.95 295.652 1262.43 188.894 1263.86 186.993C1264.71 185.757 1269.08 182.525 1269.37 181.289C1269.75 180.243 1269.56 158.188 1269.37 152.769H1268.7C1267.85 152.769 1244.76 175.49 1237.16 174.634C1232.08 173.776 1227.23 171.9 1222.9 169.121L1234.87 358.395C1247.89 362.388 1261.39 364.954 1275.45 366L1279.44 359.536L1279.63 349.269L1274.12 319.798C1274.12 319.798 1270.79 318.753 1270.51 317.897H1270.41ZM1289.51 1.86646e-05C1262.24 1.86646e-05 1236.58 5.89404 1213.3 16.5413L1220.05 123.014C1222.81 122.634 1225.09 122.634 1225.47 123.014C1226.32 124.25 1229.84 132.521 1230.12 134.137C1230.31 134.992 1229.93 136.038 1229.27 137.084L1238.49 139.65C1238.49 139.65 1255.02 117.405 1259.68 114.648L1279.44 105.617C1279.85 105.086 1280.2 104.513 1280.49 103.906L1282.2 89.6462C1282.39 87.9351 1286 84.6078 1286.85 82.0411C1287.52 79.4743 1287.33 66.7356 1287.71 65.4998C1288.18 63.5985 1298.83 56.4686 1301.58 54.7574C1306.65 54.029 1311.8 53.9651 1316.88 54.5673C1322.11 55.613 1326.58 60.2712 1326.58 62.0774L1326.1 80.9953C1326.1 82.5164 1331.99 92.1179 1331.99 95.0649C1331.99 98.012 1331.33 104.762 1331.33 106.378C1331.33 106.758 1331.71 107.804 1332.18 108.944L1351.76 120.923C1354.51 122.634 1363.07 161.896 1363.07 161.896L1374.37 184.141C1374.37 184.141 1377.7 183.285 1378.36 183.761C1379.22 184.426 1380.08 209.998 1380.08 209.998C1381.5 212.945 1385.3 220.265 1385.3 222.642C1385.3 225.399 1382.55 227.681 1379.6 229.392L1379.79 230.913C1379.79 233.384 1378.94 235.571 1377.51 237.187C1381.69 239.278 1388.63 242.701 1388.63 243.271C1388.63 244.792 1388.82 246.218 1388.63 283.008C1388.63 283.008 1384.16 286.621 1383.78 286.621L1358.6 285.1C1359.26 292.23 1359.64 298.124 1359.07 299.835C1354.7 301.926 1343.49 303.162 1335.79 303.637C1334.27 309.341 1329.24 327.118 1328 327.118H1324.86C1324.86 327.118 1315.36 340.618 1315.36 342.044C1315.36 343.279 1318.88 355.068 1318.88 355.068L1328.1 362.863C1372.38 353.351 1411.59 327.779 1438.15 291.075C1464.71 254.37 1476.76 209.13 1471.97 164.069C1467.18 119.008 1445.89 77.3154 1412.2 47.0224C1378.51 16.7293 1334.81 -0.0204099 1289.51 1.86646e-05ZM1204.66 156.762C1200.94 151.846 1198.81 145.907 1198.57 139.745C1198.76 134.517 1202.19 128.433 1203.23 126.531C1203.61 126.151 1204.66 125.676 1206.18 125.105L1199.62 22.3403C1168.95 38.9941 1143.69 64.0743 1126.81 94.6222C1109.92 125.17 1102.13 159.911 1104.33 194.748C1106.54 229.584 1118.66 263.062 1139.27 291.232C1159.87 319.403 1188.1 341.09 1220.62 353.737L1208.27 158.378C1206.94 158.123 1205.69 157.534 1204.66 156.667V156.762ZM580.424 96.3008C584.079 96.3008 587.583 97.7531 590.167 100.338C592.751 102.923 594.203 106.429 594.203 110.085C594.203 113.741 592.751 117.247 590.167 119.832C587.583 122.417 584.079 123.87 580.424 123.87C572.822 123.87 566.74 117.976 566.74 110.18C566.74 102.385 572.822 96.3008 580.424 96.3008ZM569.971 151.153C569.971 149.062 571.682 147.161 573.772 147.161H586.981C589.072 147.161 590.972 148.872 590.972 151.153V251.352H573.772C573.257 251.352 572.746 251.248 572.272 251.045C571.798 250.842 571.371 250.545 571.015 250.172C570.66 249.798 570.384 249.356 570.204 248.873C570.025 248.389 569.946 247.874 569.971 247.359V151.153ZM763.826 96.3008C767.48 96.3008 770.985 97.7531 773.569 100.338C776.153 102.923 777.605 106.429 777.605 110.085C777.605 113.741 776.153 117.247 773.569 119.832C770.985 122.417 767.48 123.87 763.826 123.87C756.224 123.87 750.142 117.976 750.142 110.18C750.142 102.385 756.224 96.3008 763.826 96.3008ZM753.373 151.153C753.373 149.062 755.084 147.161 757.364 147.161H770.573C772.664 147.161 774.564 148.872 774.564 151.153V251.352H757.364C756.84 251.352 756.321 251.248 755.837 251.048C755.353 250.847 754.913 250.553 754.542 250.182C754.172 249.811 753.877 249.371 753.677 248.887C753.476 248.402 753.373 247.883 753.373 247.359V151.153ZM716.883 94.0192H703.674C702.616 94.0192 701.6 94.4399 700.852 95.1887C700.103 95.9375 699.683 96.953 699.683 98.012V156.382C690.7 148.973 679.395 144.967 667.754 145.069C658.061 145.069 649.319 147.541 642.287 151.629C634.067 156.52 627.274 163.485 622.588 171.826C617.902 180.168 615.487 189.593 615.584 199.161C615.584 219.98 626.322 237.187 642.097 246.598C649.224 250.781 658.916 253.538 668.134 253.538C680.487 253.538 691.701 249.355 700.253 241.75V247.264C700.253 249.355 701.964 251.257 704.244 251.257H720.779V98.012C720.805 97.4968 720.725 96.9818 720.546 96.4983C720.367 96.0148 720.091 95.5728 719.735 95.1993C719.379 94.8259 718.952 94.5286 718.478 94.3257C718.004 94.1229 717.493 94.0186 716.978 94.0192H716.883ZM699.873 218.649C696.583 223.18 692.288 226.885 687.325 229.475C682.362 232.065 676.866 233.468 671.27 233.575C651.124 233.575 636.775 217.794 636.775 199.161C636.775 180.528 649.984 164.748 670.225 164.748C682.863 164.748 693.506 171.212 699.873 179.483V218.554V218.649ZM900.285 147.161H887.836C886.778 147.161 885.762 147.581 885.014 148.33C884.266 149.079 883.845 150.094 883.845 151.153V156.667C874.781 148.892 863.189 144.699 851.251 144.879C841.558 144.879 832.816 147.351 825.784 151.438C810.199 160.85 799.081 178.152 799.081 198.971C799.081 219.79 809.819 236.997 825.594 246.408C832.721 250.591 842.413 253.348 851.631 253.348C863.984 253.348 874.722 249.355 883.085 242.035V247.739C883.085 260.763 880.994 268.749 877.383 274.452C872.347 282.248 863.509 286.431 852.201 286.431C845.959 286.545 839.781 285.153 834.19 282.373C828.599 279.593 823.76 275.507 820.082 270.46C819.395 269.884 818.518 269.585 817.622 269.62C816.726 269.655 815.876 270.022 815.236 270.65L814.856 271.03L802.692 282.343C809.249 292.8 826.259 306.489 853.341 306.489C873.962 306.489 889.832 296.983 898.289 280.822C902.47 272.646 904.561 262.284 904.561 246.789V151.153C904.181 148.872 902.47 147.161 900.38 147.161H900.285ZM883.085 218.649C879.795 223.18 875.5 226.885 870.537 229.475C865.574 232.065 860.078 233.468 854.482 233.575C834.336 233.575 819.987 217.794 819.987 199.161C819.987 180.528 833.196 164.748 853.341 164.748C865.98 164.748 876.623 171.212 882.99 179.483V218.554H883.18L883.085 218.649ZM318.34 199.161C318.34 168.455 297.339 144.974 268.356 144.974C239.373 144.974 217.707 168.075 217.707 199.161C217.707 230.247 241.178 253.348 271.492 253.348C292.683 253.348 307.602 243.842 315.394 233.86L303.896 222.927C303.264 222.551 302.541 222.352 301.805 222.352C301.069 222.352 300.347 222.551 299.715 222.927L298.479 223.973C292.778 229.677 284.796 234.905 271.777 234.905C263.208 234.969 254.941 231.741 248.682 225.886C242.423 220.031 238.648 211.996 238.137 203.439H314.349C316.44 203.439 318.34 201.918 318.53 199.922C318.34 199.922 318.34 199.256 318.34 199.066V199.161ZM239.753 185.757C241.451 179.308 245.232 173.602 250.509 169.527C255.785 165.453 262.26 163.237 268.926 163.226C281.28 163.226 293.253 172.638 296.389 185.757H239.848H239.753ZM1029.24 199.161C1029.24 168.455 1008.24 144.974 979.252 144.974C950.269 144.974 928.603 168.075 928.603 199.161C928.603 230.247 952.074 253.348 982.388 253.348C1003.58 253.348 1018.5 243.842 1026.1 233.86L1014.6 222.927C1013.97 222.551 1013.25 222.352 1012.51 222.352C1011.78 222.352 1011.05 222.551 1010.42 222.927L1009.19 223.973C1005.76 227.581 1001.61 230.421 997.007 232.306C992.404 234.19 987.454 235.076 982.483 234.905C973.907 234.993 965.628 231.772 959.363 225.912C953.099 220.053 949.332 212.005 948.843 203.439H1025.05C1027.15 203.439 1029.05 201.918 1029.24 199.922V199.066V199.161ZM950.649 185.757C952.317 179.292 956.091 173.568 961.374 169.488C966.657 165.408 973.148 163.205 979.822 163.226C992.271 163.226 1004.15 172.638 1007.28 185.757H950.744H950.649ZM182.452 96.3008C184.261 96.3008 186.053 96.6573 187.725 97.3501C189.396 98.0428 190.915 99.0581 192.195 100.338C193.474 101.618 194.489 103.138 195.182 104.81C195.874 106.483 196.231 108.275 196.231 110.085C196.231 111.895 195.874 113.688 195.182 115.36C194.489 117.033 193.474 118.552 192.195 119.832C190.915 121.112 189.396 122.128 187.725 122.82C186.053 123.513 184.261 123.87 182.452 123.87C174.849 123.87 168.768 117.976 168.768 110.18C168.768 102.385 174.849 96.3008 182.452 96.3008ZM193 260.193C193 274.072 191.099 282.723 186.443 289.378C182.63 294.843 177.534 299.288 171.602 302.321C165.67 305.355 159.084 306.884 152.423 306.775C147.957 306.775 142.92 306.109 140.07 305.253L143.586 289.758C143.814 288.739 144.424 287.846 145.29 287.263C146.156 286.679 147.212 286.45 148.242 286.621L152.043 286.811C157.935 286.811 164.397 284.244 168.008 279.491C170.953 275.688 171.999 270.46 171.999 260.953V151.248C171.999 149.157 173.709 147.256 175.99 147.256H189.199C191.289 147.256 193.19 148.967 193.19 151.248V256.295L193 260.288V260.193ZM433.228 163.322C424.39 152.009 410.706 144.879 395.407 144.879C380.108 144.879 369.75 151.629 364.143 157.047V151.153C364.143 149.062 362.433 147.161 360.342 147.161H347.893C346.835 147.161 345.82 147.581 345.071 148.33C344.323 149.079 343.902 150.094 343.902 151.153V247.359C343.902 249.45 345.613 251.352 347.893 251.352H361.102C363.193 251.352 365.093 249.641 365.093 247.359V179.863C368.653 175.335 373.18 171.661 378.343 169.112C383.506 166.562 389.174 165.201 394.932 165.128C403.579 165.128 411.561 169.121 416.408 175.395C420.209 180.053 422.68 186.137 422.68 199.541L422.87 203.344V247.644C422.87 249.736 424.58 251.637 426.861 251.637H443.871V200.777C443.49 182.525 439.879 171.972 433.323 163.417L433.228 163.322ZM465.062 238.993C476.903 248.645 491.792 253.768 507.063 253.443C527.399 253.443 545.739 241.275 545.739 221.501C545.739 200.017 524.263 192.697 507.919 188.514C497.466 185.947 489.388 183.475 489.388 176.345C489.388 168.17 498.036 163.322 508.299 163.322C515.426 163.322 521.698 165.793 527.399 169.406C529.3 170.451 531.77 169.881 532.911 168.17L538.422 160.565L538.802 160.089C540.323 157.998 540.228 156.097 538.612 154.576L538.137 154.1C528.906 147.915 517.979 144.759 506.873 145.069C488.343 145.069 468.388 155.336 468.388 177.581C468.388 192.126 479.696 200.112 492.334 204.295C507.634 209.333 524.929 209.998 524.929 221.977C524.929 230.152 515.901 235.001 506.683 235.001C497.466 235.001 488.153 231.863 479.221 225.969C478.417 225.37 477.421 225.087 476.422 225.175C475.423 225.263 474.491 225.714 473.804 226.445L464.967 239.088L465.062 238.993ZM140.45 161.04C140.45 159.981 140.029 158.965 139.281 158.217C138.532 157.468 137.517 157.047 136.459 157.047H74.0259V174.444C74.216 176.536 75.9265 178.057 77.827 178.057H118.308V217.984C108.011 227.582 94.3682 232.769 80.2977 232.434C47.3234 232.434 22.1413 208.668 22.1413 173.779C22.1413 138.89 46.7532 115.124 78.3972 115.124C93.5065 115.124 108.046 121.398 117.453 129.859C118.879 131.285 121.064 131.285 122.68 130.049C122.87 130.049 122.87 129.859 122.87 129.859H122.68L132.087 120.637C132.087 120.637 132.087 120.447 132.277 120.447C132.897 119.811 133.274 118.977 133.343 118.092C133.413 117.206 133.17 116.324 132.658 115.599L132.277 115.124V114.934C117.698 101.158 98.3555 93.5614 78.3022 93.734C33.7345 94.1143 0 129.003 0 173.779C0 218.554 34.0196 253.443 80.3927 253.443C91.9285 253.336 103.301 250.701 113.709 245.725C124.118 240.748 133.31 233.551 140.64 224.638V161.135L140.45 161.04Z" fill="white"/>
</svg>
