<svg width="136" height="45" viewBox="0 0 136 45" fill="none" xmlns="http://www.w3.org/2000/svg">
<path d="M8.68182 35.4091C7.01136 35.4091 5.53409 35.1364 4.25 34.5909C2.97727 34.0341 1.97727 33.1932 1.25 32.0682C0.522727 30.9432 0.159091 29.5114 0.159091 27.7727C0.159091 26.3409 0.403409 25.1193 0.892045 24.108C1.38068 23.0852 2.0625 22.25 2.9375 21.6023C3.8125 20.9545 4.82955 20.4602 5.98864 20.1193C7.15909 19.7784 8.42045 19.5568 9.77273 19.4545C11.2386 19.3409 12.4148 19.2045 13.3011 19.0455C14.1989 18.875 14.8466 18.642 15.2443 18.3466C15.642 18.0398 15.8409 17.6364 15.8409 17.1364V17.0682C15.8409 16.3864 15.5795 15.8636 15.0568 15.5C14.5341 15.1364 13.8636 14.9545 13.0455 14.9545C12.1477 14.9545 11.4148 15.1534 10.8466 15.5511C10.2898 15.9375 9.95455 16.5341 9.84091 17.3409H1.18182C1.29545 15.75 1.80114 14.2841 2.69886 12.9432C3.60795 11.5909 4.93182 10.5114 6.67045 9.70455C8.40909 8.88636 10.5795 8.47727 13.1818 8.47727C15.0568 8.47727 16.7386 8.69886 18.2273 9.14205C19.7159 9.57386 20.983 10.1818 22.0284 10.9659C23.0739 11.7386 23.8693 12.6477 24.4148 13.6932C24.9716 14.7273 25.25 15.8523 25.25 17.0682V35H16.4545V31.3182H16.25C15.7273 32.2955 15.0909 33.0852 14.3409 33.6875C13.6023 34.2898 12.7557 34.7273 11.8011 35C10.858 35.2727 9.81818 35.4091 8.68182 35.4091ZM11.75 29.4773C12.4659 29.4773 13.1364 29.3295 13.7614 29.0341C14.3977 28.7386 14.9148 28.3125 15.3125 27.7557C15.7102 27.1989 15.9091 26.5227 15.9091 25.7273V23.5455C15.6591 23.6477 15.392 23.7443 15.108 23.8352C14.8352 23.9261 14.5398 24.0114 14.2216 24.0909C13.9148 24.1705 13.5852 24.2443 13.233 24.3125C12.892 24.3807 12.5341 24.4432 12.1591 24.5C11.4318 24.6136 10.8352 24.8011 10.3693 25.0625C9.91477 25.3125 9.57386 25.625 9.34659 26C9.13068 26.3636 9.02273 26.7727 9.02273 27.2273C9.02273 27.9545 9.27841 28.5114 9.78977 28.8977C10.3011 29.2841 10.9545 29.4773 11.75 29.4773ZM28.3057 44.8182V8.81818H37.6466V13.3864H37.8512C38.1921 12.5 38.6921 11.6875 39.3512 10.9489C40.0103 10.1989 40.8285 9.60227 41.8057 9.15909C42.783 8.70455 43.9194 8.47727 45.2148 8.47727C46.9421 8.47727 48.5841 8.9375 50.141 9.85795C51.7091 10.7784 52.9819 12.2273 53.9591 14.2045C54.9478 16.1818 55.4421 18.75 55.4421 21.9091C55.4421 24.9318 54.9705 27.4375 54.0273 29.4261C53.0955 31.4148 51.8455 32.8977 50.2773 33.875C48.7205 34.8523 47.0103 35.3409 45.1466 35.3409C43.9194 35.3409 42.8228 35.142 41.8569 34.7443C40.9023 34.3352 40.0841 33.7841 39.4023 33.0909C38.7319 32.3864 38.2148 31.5909 37.8512 30.7045H37.7148V44.8182H28.3057ZM37.5103 21.9091C37.5103 23.1818 37.6751 24.2841 38.0046 25.2159C38.3455 26.1364 38.8228 26.8523 39.4364 27.3636C40.0614 27.8636 40.8057 28.1136 41.6694 28.1136C42.533 28.1136 43.266 27.8693 43.8682 27.3807C44.4819 26.8807 44.9478 26.1705 45.266 25.25C45.5955 24.3182 45.7603 23.2045 45.7603 21.9091C45.7603 20.6136 45.5955 19.5057 45.266 18.5852C44.9478 17.6534 44.4819 16.9432 43.8682 16.4545C43.266 15.9545 42.533 15.7045 41.6694 15.7045C40.8057 15.7045 40.0614 15.9545 39.4364 16.4545C38.8228 16.9432 38.3455 17.6534 38.0046 18.5852C37.6751 19.5057 37.5103 20.6136 37.5103 21.9091ZM57.9439 44.8182V8.81818H67.2848V13.3864H67.4893C67.8302 12.5 68.3302 11.6875 68.9893 10.9489C69.6484 10.1989 70.4666 9.60227 71.4439 9.15909C72.4211 8.70455 73.5575 8.47727 74.853 8.47727C76.5802 8.47727 78.2223 8.9375 79.7791 9.85795C81.3473 10.7784 82.62 12.2273 83.5973 14.2045C84.5859 16.1818 85.0802 18.75 85.0802 21.9091C85.0802 24.9318 84.6086 27.4375 83.6655 29.4261C82.7336 31.4148 81.4836 32.8977 79.9155 33.875C78.3586 34.8523 76.6484 35.3409 74.7848 35.3409C73.5575 35.3409 72.4609 35.142 71.495 34.7443C70.5405 34.3352 69.7223 33.7841 69.0405 33.0909C68.37 32.3864 67.853 31.5909 67.4893 30.7045H67.353V44.8182H57.9439ZM67.1484 21.9091C67.1484 23.1818 67.3132 24.2841 67.6427 25.2159C67.9836 26.1364 68.4609 26.8523 69.0745 27.3636C69.6995 27.8636 70.4439 28.1136 71.3075 28.1136C72.1711 28.1136 72.9041 27.8693 73.5064 27.3807C74.12 26.8807 74.5859 26.1705 74.9041 25.25C75.2336 24.3182 75.3984 23.2045 75.3984 21.9091C75.3984 20.6136 75.2336 19.5057 74.9041 18.5852C74.5859 17.6534 74.12 16.9432 73.5064 16.4545C72.9041 15.9545 72.1711 15.7045 71.3075 15.7045C70.4439 15.7045 69.6995 15.9545 69.0745 16.4545C68.4609 16.9432 67.9836 17.6534 67.6427 18.5852C67.3132 19.5057 67.1484 20.6136 67.1484 21.9091ZM96.9911 0.0909081V35H87.582V0.0909081H96.9911ZM106.072 44.8182C104.993 44.8182 103.964 44.733 102.987 44.5625C102.01 44.4034 101.152 44.1818 100.413 43.8977L102.459 37.2159C103.231 37.4886 103.936 37.6648 104.572 37.7443C105.22 37.8239 105.771 37.7784 106.226 37.608C106.692 37.4375 107.027 37.1136 107.231 36.6364L107.436 36.1591L98.2315 8.81818H108.05L112.277 26.9545H112.55L116.845 8.81818H126.731L117.186 37.1818C116.709 38.625 116.016 39.9205 115.106 41.0682C114.209 42.2273 113.027 43.142 111.561 43.8125C110.095 44.483 108.266 44.8182 106.072 44.8182ZM131.831 35.4545C130.733 35.4545 129.791 35.071 129.005 34.304C128.228 33.5275 127.845 32.5852 127.854 31.4773C127.845 30.3977 128.228 29.4744 129.005 28.7074C129.791 27.9403 130.733 27.5568 131.831 27.5568C132.873 27.5568 133.791 27.9403 134.587 28.7074C135.392 29.4744 135.799 30.3977 135.809 31.4773C135.799 32.2159 135.605 32.8883 135.226 33.4943C134.857 34.0909 134.374 34.5691 133.777 34.929C133.181 35.2794 132.532 35.4545 131.831 35.4545ZM131.831 20.7955C130.733 20.7955 129.791 20.4119 129.005 19.6449C128.228 18.8684 127.845 17.9261 127.854 16.8182C127.845 15.7386 128.228 14.8153 129.005 14.0483C129.791 13.2812 130.733 12.8977 131.831 12.8977C132.873 12.8977 133.791 13.2812 134.587 14.0483C135.392 14.8153 135.799 15.7386 135.809 16.8182C135.799 17.5568 135.605 18.2292 135.226 18.8352C134.857 19.4318 134.374 19.91 133.777 20.2699C133.181 20.6203 132.532 20.7955 131.831 20.7955Z" fill="#EEEEEE"/>
</svg>
