<svg width="2800" height="798" viewBox="0 0 2800 798" fill="none" xmlns="http://www.w3.org/2000/svg">
<g clip-path="url(#clip0_5653_31)">
<path d="M312.848 135.534C365.423 135.534 451.788 140.887 451.788 140.887L462.987 5.50356C462.987 5.50356 367.304 0.00488281 290.881 0.00488281C245.991 0.00488281 199.67 3.22339 164.674 26.757C106.741 64.042 101.833 125.897 101.833 186.054V239.803H0V369.256H103.011V665.931C91.2067 668.16 35.854 678.688 35.854 678.688V789.924H333.242V678.59C333.242 678.59 271.242 667.062 264.912 665.88V369.251H433.232L443.056 239.798H264.912V176.694C264.912 136.721 268.849 135.534 312.848 135.534Z" fill="white"/>
<path d="M751.454 233.365C516.291 233.365 462.168 286.062 462.168 515.388C462.168 744.752 516.296 797.477 751.454 797.477C986.64 797.477 1040.74 744.752 1040.74 515.388C1040.74 286.067 986.644 233.365 751.454 233.365ZM857.585 646.878C845.142 661.891 818.367 666.949 751.454 666.949C684.907 666.949 658.253 661.891 645.665 646.826C630.497 628.604 627.602 586.566 627.602 515.388C627.602 444.234 630.497 402.21 645.665 383.992C658.258 368.899 684.911 363.842 751.454 363.842C818.367 363.842 845.142 368.899 857.585 383.917C872.458 401.858 875.263 443.985 875.263 515.384C875.263 586.815 872.458 628.932 857.585 646.878Z" fill="white"/>
<path d="M1907.55 369.251C2001.71 369.251 2090.45 387.122 2090.45 387.122L2112.5 258.4C2112.5 258.4 1999.87 233.365 1878.58 233.365C1767.54 233.365 1701.32 250.574 1657.29 290.951C1610.28 333.979 1589.37 403.191 1589.37 515.416C1589.37 627.605 1610.28 696.826 1657.29 739.849C1701.32 780.24 1767.54 797.477 1878.58 797.477C2029.05 797.477 2112.29 769.102 2112.29 769.102L2090.32 644.41C2090.32 644.41 2003.11 663.707 1907.54 663.707C1832.78 663.707 1796.6 656.609 1778.53 638.381C1761.21 620.928 1754.8 587.58 1754.8 515.416C1754.8 443.197 1761.17 410.111 1778.28 393.324C1795.99 375.998 1832.24 369.251 1907.55 369.251Z" fill="white"/>
<path d="M2734.06 665.932V415.1C2734.06 339.136 2708.86 291.149 2654.75 263.975C2612.86 242.797 2552.76 233.371 2459.83 233.371C2294.26 233.371 2187.24 258.406 2187.24 258.406L2208.06 387.128C2208.06 387.128 2324.89 366.015 2442.51 366.015C2480 366.015 2517.63 367.272 2539.95 376.177C2559.58 383.707 2570.94 394.184 2570.94 434.65H2369.6C2208.64 437.005 2154.4 477.054 2154.4 611.396C2154.4 768.713 2237.01 797.488 2399.72 797.488C2442.25 797.488 2495.77 792.533 2495.77 792.533L2583.4 732.77L2596.11 789.901H2800V678.783C2800 678.778 2740 667.068 2734.06 665.932ZM2571.01 649.3C2538.37 654.771 2470.58 664.811 2411.27 664.811C2377.45 664.811 2348.32 664.173 2334.3 656.502C2329.59 653.893 2319.82 648.54 2319.82 611.391C2319.82 569.658 2329.96 563.55 2333.3 561.514C2344.22 554.903 2364.4 554.786 2418.52 554.786H2571.01V649.3V649.3Z" fill="white"/>
<path d="M1379.56 239.878L1289.49 304.445L1274.96 239.802H1081.84V351.033C1081.84 351.033 1142.81 362.645 1148.95 363.8V665.931C1137.13 668.183 1081.84 678.716 1081.84 678.716V789.924H1378V678.782C1378 678.782 1314.97 666.49 1310.85 665.697V387.047C1337.41 384.241 1387.52 380.028 1449.76 380.028C1496.82 380.028 1562.21 386.259 1562.21 386.259L1574.26 240.267C1574.26 240.267 1514.41 233.323 1481.01 233.323C1424.3 233.319 1379.56 239.878 1379.56 239.878Z" fill="white"/>
</g>
<defs>
<clipPath id="clip0_5653_31">
<rect width="2800" height="797.482" fill="white"/>
</clipPath>
</defs>
</svg>
