<svg width="2800" height="582" viewBox="0 0 2800 582" fill="none" xmlns="http://www.w3.org/2000/svg">
<path d="M2403.31 423.483C2385.74 423.483 2372.93 412.464 2372.93 392.213V174.218C2372.93 153.967 2385.74 142.948 2403.31 142.948C2420.89 142.948 2433.7 153.967 2433.7 174.218V367.793H2547.75C2563.84 367.793 2575.44 378.812 2575.44 395.787C2575.44 412.166 2563.84 423.483 2547.75 423.483H2403.31ZM2119.8 423.483C2102.24 423.483 2089.42 412.464 2089.42 392.213V174.218C2089.42 153.967 2102.24 142.948 2119.8 142.948C2137.38 142.948 2150.17 153.967 2150.17 174.218V367.793H2263.95C2280.02 367.793 2291.63 378.812 2291.63 395.787C2291.63 412.166 2280.02 423.483 2263.95 423.483H2119.8ZM283.823 176.303C283.823 156.052 296.033 145.033 313.603 145.033H410.689C446.128 145.033 473.514 155.158 491.978 173.324C507.178 188.811 515.803 210.848 515.803 237.055V237.651C515.803 281.429 493.777 308.541 460.113 322.514L502.104 373.451C508.06 380.896 512.527 386.853 512.527 396.394C512.527 413.346 497.053 425.865 481.555 425.865C467.856 425.865 460.411 419.016 453.263 409.796L393.702 334.427H344.564V394.596C344.564 414.835 331.77 425.865 314.187 425.865C296.616 425.865 283.823 414.835 283.823 394.596V176.303ZM1494.99 145.033C1526.56 145.033 1551.88 153.967 1567.96 170.049C1580.48 182.557 1586.72 198.638 1586.72 217.102C1586.72 249.265 1570.05 266.836 1550.09 277.855C1582.25 290.065 1602.21 308.827 1602.21 346.339C1602.21 398.169 1560.81 423.483 1497.97 423.483H1396.12C1378.56 423.483 1365.75 412.464 1365.75 392.213V176.303C1365.75 156.052 1378.56 145.033 1396.12 145.033H1494.99ZM1246.33 394.596C1246.33 414.835 1233.53 425.865 1215.95 425.865C1198.39 425.865 1185.57 414.835 1185.57 394.596V256.413L1131.97 339.203C1125.71 348.745 1117.68 354.701 1106.65 354.701C1095.35 354.701 1087.3 348.745 1081.04 339.203L1028.34 257.604V394.596C1028.34 414.835 1015.52 425.865 997.954 425.865C980.383 425.865 967.589 414.835 967.589 394.596V171.835C967.589 152.478 984.552 143.246 1000.63 143.246C1015.82 143.246 1026.85 148.904 1034.3 161.114L1107.26 279.94L1180.21 161.114C1187.66 148.904 1198.08 143.246 1213.28 143.246C1229.35 143.246 1246.33 152.478 1246.33 171.835V394.596ZM2680.88 581.035C2764.26 581.035 2800 545.298 2800 461.912V119.123C2800 35.7373 2764.26 0.000366211 2680.88 0.000366211H2089.42L1833.61 307.934L1824.07 303.466L1847.9 198.043C1844.04 197.149 1840.17 196.851 1835.98 196.851C1786.56 196.851 1752.31 235.864 1752.31 283.513V284.407C1752.31 332.056 1787.45 371.653 1836.59 371.653C1886.02 371.653 1919.98 332.938 1919.98 285.288V284.407C1919.98 275.473 1918.78 266.836 1916.39 259.093L1968.51 217.996C1978.34 237.651 1984.01 259.987 1984.01 283.513V284.407C1984.01 363.326 1921.75 428.236 1835.98 428.236C1749.92 428.236 1688.57 364.207 1688.57 285.288V284.407C1688.57 205.19 1750.82 140.566 1836.59 140.566C1844.92 140.566 1852.97 141.161 1860.7 142.055L1893.46 0.000366211H119.123C35.7369 0.000366211 0 35.7373 0 119.123V461.912C0 545.298 35.7369 581.035 119.123 581.035H2680.88ZM796.636 360.943H674.249L654.891 406.818C649.816 419.016 640.287 425.865 627.791 425.865C611.709 425.865 598.308 413.953 598.308 397.883C598.308 393.416 599.797 388.342 601.869 383.875L698.955 164.986C705.804 149.798 717.717 140.863 736.181 140.863C754.657 140.863 766.855 149.798 773.716 164.986L870.504 383.875C872.577 388.342 874.066 393.416 874.066 397.883C874.066 413.953 860.378 425.865 843.999 425.865C831.181 425.865 821.366 419.016 816.291 406.818L796.636 360.943ZM696.87 307.052H774.014L735.299 215.018L696.87 307.052ZM1525.67 228.419C1525.67 208.764 1511.67 198.936 1485.77 198.936H1425.31V257.604H1481.89C1509 257.604 1525.67 248.968 1525.67 228.419ZM405.614 200.425H344.564V280.237H406.805C436.586 280.237 453.573 264.454 453.573 240.927V240.033C453.573 213.826 435.395 200.425 405.614 200.425ZM1495.89 308.541H1425.31V369.592H1497.97C1525.07 369.592 1541.45 360.05 1541.45 339.501C1541.45 319.846 1527.47 308.541 1495.89 308.541Z" fill="white"/>
</svg>
