<svg width="150" height="72" viewBox="0 0 150 72" fill="none" xmlns="http://www.w3.org/2000/svg">
<path d="M9.50736 40.1712C7.64392 40.1712 5.99597 39.867 4.56353 39.2585C3.14377 38.6373 2.02824 37.6993 1.21694 36.4443C0.405647 35.1893 0 33.5921 0 31.6526C0 30.0554 0.272544 28.6926 0.817633 27.5644C1.36272 26.4236 2.12331 25.4918 3.0994 24.7693C4.07549 24.0467 5.21003 23.4953 6.50303 23.115C7.80871 22.7347 9.2158 22.4875 10.7243 22.3734C12.3596 22.2467 13.6716 22.0945 14.6603 21.9171C15.6618 21.7269 16.3843 21.4671 16.828 21.1375C17.2717 20.7952 17.4935 20.3452 17.4935 19.7874V19.7114C17.4935 18.9508 17.202 18.3677 16.6189 17.962C16.0357 17.5564 15.2878 17.3535 14.3751 17.3535C13.3737 17.3535 12.5561 17.5754 11.9222 18.0191C11.3011 18.4501 10.9271 19.1156 10.8004 20.0156H1.14088C1.26765 18.2409 1.83175 16.6056 2.83319 15.1098C3.84731 13.6013 5.32412 12.397 7.26362 11.497C9.20312 10.5843 11.6243 10.1279 14.5272 10.1279C16.6189 10.1279 18.495 10.3751 20.1556 10.8695C21.8162 11.3512 23.2296 12.0294 24.3959 12.9041C25.5621 13.7661 26.4495 14.7802 27.0579 15.9464C27.6791 17.1 27.9897 18.355 27.9897 19.7114V39.7148H18.1781V35.6077H17.9499C17.3668 36.6978 16.6569 37.5789 15.8202 38.2507C14.9963 38.9226 14.0519 39.4106 12.9871 39.7148C11.9349 40.0191 10.775 40.1712 9.50736 40.1712ZM12.93 33.5541C13.7286 33.5541 14.4765 33.3893 15.1737 33.0597C15.8836 32.7301 16.4604 32.2547 16.9041 31.6336C17.3478 31.0124 17.5696 30.2582 17.5696 29.3708V26.937C17.2907 27.051 16.9928 27.1588 16.6759 27.2602C16.3717 27.3616 16.0421 27.4567 15.6871 27.5454C15.3449 27.6342 14.9773 27.7166 14.5843 27.7926C14.204 27.8687 13.8047 27.9384 13.3864 28.0018C12.5751 28.1285 11.9096 28.3377 11.3898 28.6293C10.8828 28.9081 10.5025 29.2568 10.2489 29.6751C10.0081 30.0807 9.88765 30.5371 9.88765 31.0441C9.88765 31.8554 10.1729 32.4766 10.7433 32.9076C11.3138 33.3386 12.0427 33.5541 12.93 33.5541Z" fill="#EEEEEE"/>
<path d="M31.3984 50.6673V10.5082H41.8185V15.6042H42.0467C42.427 14.6154 42.9847 13.7091 43.72 12.8851C44.4552 12.0484 45.3679 11.3829 46.4581 10.8885C47.5483 10.3815 48.8159 10.1279 50.261 10.1279C52.1879 10.1279 54.0196 10.6413 55.7563 11.6681C57.5056 12.6949 58.9254 14.3112 60.0156 16.5169C61.1184 18.7226 61.6699 21.5875 61.6699 25.1115C61.6699 28.4835 61.1438 31.2787 60.0916 33.497C59.0522 35.7154 57.6578 37.3697 55.9084 38.4599C54.1717 39.5501 52.2639 40.0951 50.185 40.0951C48.8159 40.0951 47.5926 39.8733 46.5151 39.4296C45.4503 38.9733 44.5376 38.3585 43.777 37.5852C43.0291 36.7993 42.4523 35.9119 42.0467 34.9231H41.8946V50.6673H31.3984ZM41.6664 25.1115C41.6664 26.5313 41.8502 27.7609 42.2178 28.8004C42.5981 29.8272 43.1305 30.6258 43.815 31.1963C44.5122 31.754 45.3426 32.0329 46.306 32.0329C47.2694 32.0329 48.087 31.7604 48.7589 31.2153C49.4434 30.6575 49.9631 29.8652 50.3181 28.8384C50.6857 27.799 50.8695 26.5567 50.8695 25.1115C50.8695 23.6664 50.6857 22.4305 50.3181 21.4037C49.9631 20.3642 49.4434 19.5719 48.7589 19.0268C48.087 18.4691 47.2694 18.1902 46.306 18.1902C45.3426 18.1902 44.5122 18.4691 43.815 19.0268C43.1305 19.5719 42.5981 20.3642 42.2178 21.4037C41.8502 22.4305 41.6664 23.6664 41.6664 25.1115Z" fill="#EEEEEE"/>
<path d="M64.4607 50.6673V10.5082H74.8807V15.6042H75.1089C75.4892 14.6154 76.047 13.7091 76.7822 12.8851C77.5174 12.0484 78.4301 11.3829 79.5203 10.8885C80.6105 10.3815 81.8781 10.1279 83.3233 10.1279C85.2501 10.1279 87.0818 10.6413 88.8185 11.6681C90.5679 12.6949 91.9876 14.3112 93.0778 16.5169C94.1807 18.7226 94.7321 21.5875 94.7321 25.1115C94.7321 28.4835 94.206 31.2787 93.1539 33.497C92.1144 35.7154 90.72 37.3697 88.9706 38.4599C87.2339 39.5501 85.3261 40.0951 83.2472 40.0951C81.8781 40.0951 80.6549 39.8733 79.5774 39.4296C78.5125 38.9733 77.5998 38.3585 76.8392 37.5852C76.0913 36.7993 75.5145 35.9119 75.1089 34.9231H74.9568V50.6673H64.4607ZM74.7286 25.1115C74.7286 26.5313 74.9124 27.7609 75.28 28.8004C75.6603 29.8272 76.1927 30.6258 76.8773 31.1963C77.5745 31.754 78.4048 32.0329 79.3682 32.0329C80.3316 32.0329 81.1492 31.7604 81.8211 31.2153C82.5056 30.6575 83.0254 29.8652 83.3803 28.8384C83.7479 27.799 83.9317 26.5567 83.9317 25.1115C83.9317 23.6664 83.7479 22.4305 83.3803 21.4037C83.0254 20.3642 82.5056 19.5719 81.8211 19.0268C81.1492 18.4691 80.3316 18.1902 79.3682 18.1902C78.4048 18.1902 77.5745 18.4691 76.8773 19.0268C76.1927 19.5719 75.6603 20.3642 75.28 21.4037C74.9124 22.4305 74.7286 23.6664 74.7286 25.1115Z" fill="#EEEEEE"/>
<path d="M108.019 0.772705V39.7148H97.5229V0.772705H108.019Z" fill="#EEEEEE"/>
<path d="M118.149 50.6673C116.945 50.6673 115.798 50.5723 114.708 50.3821C113.618 50.2046 112.661 49.9574 111.837 49.6405L114.118 42.1868C114.98 42.491 115.766 42.6875 116.476 42.7762C117.199 42.865 117.814 42.8142 118.321 42.6241C118.84 42.434 119.214 42.0727 119.442 41.5403L119.671 41.0078L109.403 10.5082H120.355L125.071 30.7399H125.375L130.167 10.5082H141.195L130.547 42.1487C130.015 43.7586 129.241 45.2038 128.227 46.4841C127.226 47.7771 125.907 48.7975 124.272 49.5455C122.637 50.2934 120.596 50.6673 118.149 50.6673Z" fill="#EEEEEE"/>
<path d="M146.077 40.1632C144.993 40.1632 144.064 39.7849 143.289 39.0283C142.523 38.2624 142.145 37.333 142.154 36.2402C142.145 35.1753 142.523 34.2646 143.289 33.508C144.064 32.7515 144.993 32.3732 146.077 32.3732C147.104 32.3732 148.01 32.7515 148.795 33.508C149.589 34.2646 149.991 35.1753 150 36.2402C149.991 36.9687 149.799 37.6319 149.426 38.2297C149.061 38.8182 148.585 39.2899 147.996 39.6448C147.408 39.9904 146.768 40.1632 146.077 40.1632ZM146.077 25.704C144.993 25.704 144.064 25.3257 143.289 24.5691C142.523 23.8032 142.145 22.8738 142.154 21.781C142.145 20.7161 142.523 19.8054 143.289 19.0489C144.064 18.2923 144.993 17.914 146.077 17.914C147.104 17.914 148.01 18.2923 148.795 19.0489C149.589 19.8054 149.991 20.7161 150 21.781C149.991 22.5095 149.799 23.1727 149.426 23.7705C149.061 24.359 148.585 24.8307 147.996 25.1856C147.408 25.5312 146.768 25.704 146.077 25.704Z" fill="#EEEEEE"/>
<path d="M6.12074 64.4184C6.12074 65.3175 5.96111 66.0715 5.64187 66.6807C5.32629 67.2898 4.85659 67.7485 4.23278 68.0567C3.61263 68.365 2.84387 68.5191 1.92649 68.5191H0V60.4719H2.17969C3.03835 60.4719 3.75941 60.6223 4.34286 60.9232C4.92631 61.2241 5.36849 61.6681 5.66939 62.2552C5.97029 62.8387 6.12074 63.5598 6.12074 64.4184ZM5.52628 64.4404C5.52628 63.6735 5.40151 63.0332 5.15199 62.5195C4.90246 62.0057 4.52083 61.6204 4.0071 61.3636C3.49337 61.103 2.84203 60.9728 2.05309 60.9728H0.566939V68.0182H1.89897C3.11358 68.0182 4.02178 67.721 4.62358 67.1265C5.22538 66.5284 5.52628 65.633 5.52628 64.4404Z" fill="#EEEEEE"/>
<path d="M8.37198 62.536V68.5191H7.81605V62.536H8.37198ZM8.10227 60.3233C8.24171 60.3233 8.34446 60.3655 8.41051 60.4499C8.47656 60.5306 8.50959 60.6407 8.50959 60.7801C8.50959 60.9195 8.47656 61.0296 8.41051 61.1104C8.34446 61.1911 8.24171 61.2315 8.10227 61.2315C7.97017 61.2315 7.87109 61.1911 7.80504 61.1104C7.73899 61.0296 7.70596 60.9195 7.70596 60.7801C7.70596 60.6407 7.73899 60.5306 7.80504 60.4499C7.87109 60.3655 7.97017 60.3233 8.10227 60.3233Z" fill="#EEEEEE"/>
<path d="M11.9553 71.2272C11.203 71.2272 10.6177 71.0822 10.1994 70.7924C9.78474 70.5025 9.57741 70.097 9.57741 69.5759C9.57741 69.1723 9.70401 68.8237 9.95721 68.5301C10.2104 68.2402 10.5535 68.0659 10.9865 68.0072C10.814 67.9265 10.6728 67.8164 10.5627 67.6769C10.4563 67.5375 10.4031 67.376 10.4031 67.1926C10.4031 66.9871 10.4673 66.7963 10.5957 66.6201C10.7241 66.4403 10.9168 66.2752 11.1736 66.1247C10.8287 66 10.5572 65.789 10.359 65.4918C10.1609 65.1909 10.0618 64.8294 10.0618 64.4074C10.0618 64.0038 10.148 63.6533 10.3205 63.3561C10.493 63.0589 10.737 62.8295 11.0526 62.6681C11.3718 62.5029 11.7479 62.4204 12.1809 62.4204C12.313 62.4204 12.4323 62.424 12.5387 62.4314C12.6488 62.4387 12.7497 62.4516 12.8414 62.4699C12.9332 62.4846 13.0157 62.5048 13.0891 62.5305H15.0211V62.9268L13.7882 63.0093C13.9496 63.2038 14.0707 63.4148 14.1515 63.6423C14.2322 63.8662 14.2725 64.1028 14.2725 64.3524C14.2725 64.9468 14.0854 65.4184 13.7111 65.767C13.3368 66.1156 12.8158 66.2899 12.1479 66.2899C11.9644 66.2899 11.7846 66.2734 11.6085 66.2403C11.3846 66.3724 11.214 66.5064 11.0966 66.6421C10.9792 66.7742 10.9205 66.9394 10.9205 67.1375C10.9205 67.2623 10.9571 67.365 11.0305 67.4458C11.1039 67.5228 11.2103 67.5834 11.3498 67.6274C11.4892 67.6678 11.6599 67.688 11.8617 67.688H12.913C13.5625 67.688 14.0597 67.8201 14.4046 68.0843C14.7496 68.3485 14.922 68.7374 14.922 69.2512C14.922 69.8786 14.6633 70.3649 14.1459 70.7098C13.6322 71.0547 12.902 71.2272 11.9553 71.2272ZM11.9938 70.7593C12.5185 70.7593 12.9552 70.7025 13.3038 70.5887C13.6561 70.4749 13.9203 70.3061 14.0964 70.0823C14.2725 69.8621 14.3606 69.5888 14.3606 69.2622C14.3606 68.9943 14.2964 68.787 14.168 68.6402C14.0395 68.4934 13.8579 68.3925 13.623 68.3375C13.3882 68.2787 13.1111 68.2494 12.7919 68.2494H11.7901C11.4709 68.2494 11.1865 68.2934 10.937 68.3815C10.6874 68.4659 10.493 68.6017 10.3535 68.7888C10.2177 68.976 10.1499 69.2255 10.1499 69.5374C10.1499 69.9374 10.3058 70.2401 10.6177 70.4456C10.9333 70.6548 11.392 70.7593 11.9938 70.7593ZM12.1699 65.844C12.6653 65.844 13.0451 65.7193 13.3093 65.4697C13.5735 65.2202 13.7056 64.8588 13.7056 64.3854C13.7056 63.879 13.5698 63.4992 13.2983 63.246C13.0267 62.9928 12.647 62.8662 12.1589 62.8662C11.6855 62.8662 11.3131 63.002 11.0415 63.2735C10.7737 63.5414 10.6397 63.9194 10.6397 64.4074C10.6397 64.8624 10.7682 65.2165 11.025 65.4697C11.2819 65.7193 11.6635 65.844 12.1699 65.844Z" fill="#EEEEEE"/>
<path d="M16.7825 62.536V68.5191H16.2266V62.536H16.7825ZM16.5128 60.3233C16.6522 60.3233 16.755 60.3655 16.821 60.4499C16.8871 60.5306 16.9201 60.6407 16.9201 60.7801C16.9201 60.9195 16.8871 61.0296 16.821 61.1104C16.755 61.1911 16.6522 61.2315 16.5128 61.2315C16.3807 61.2315 16.2816 61.1911 16.2155 61.1104C16.1495 61.0296 16.1165 60.9195 16.1165 60.7801C16.1165 60.6407 16.1495 60.5306 16.2155 60.4499C16.2816 60.3655 16.3807 60.3233 16.5128 60.3233Z" fill="#EEEEEE"/>
<path d="M20.3988 68.1503C20.5713 68.1503 20.7309 68.1375 20.8777 68.1118C21.0281 68.0861 21.1602 68.0531 21.274 68.0127V68.4751C21.1565 68.5154 21.0189 68.5503 20.8611 68.5796C20.7034 68.6127 20.5291 68.6292 20.3382 68.6292C20.0006 68.6292 19.7199 68.5668 19.4961 68.442C19.2722 68.3136 19.1035 68.121 18.9897 67.8641C18.8759 67.6036 18.8191 67.2733 18.8191 66.8733V62.9983H17.9274V62.6681L18.8136 62.4974L19.0062 61.0883H19.375V62.536H21.2409V62.9983H19.375V66.8403C19.375 67.2696 19.4539 67.5962 19.6117 67.8201C19.7731 68.0402 20.0355 68.1503 20.3988 68.1503Z" fill="#EEEEEE"/>
<path d="M23.1124 62.536V68.5191H22.5565V62.536H23.1124ZM22.8427 60.3233C22.9821 60.3233 23.0849 60.3655 23.1509 60.4499C23.217 60.5306 23.25 60.6407 23.25 60.7801C23.25 60.9195 23.217 61.0296 23.1509 61.1104C23.0849 61.1911 22.9821 61.2315 22.8427 61.2315C22.7106 61.2315 22.6115 61.1911 22.5454 61.1104C22.4794 61.0296 22.4464 60.9195 22.4464 60.7801C22.4464 60.6407 22.4794 60.5306 22.5454 60.4499C22.6115 60.3655 22.7106 60.3233 22.8427 60.3233Z" fill="#EEEEEE"/>
<path d="M27.2021 62.4314C27.8589 62.4314 28.3506 62.5965 28.6772 62.9268C29.0038 63.257 29.1671 63.7836 29.1671 64.5065V68.5191H28.7377L28.6387 67.4733H28.6056C28.4772 67.6971 28.3213 67.8971 28.1378 68.0733C27.9543 68.2457 27.7286 68.3815 27.4608 68.4806C27.1965 68.5796 26.8736 68.6292 26.492 68.6292C26.1067 68.6292 25.7764 68.565 25.5012 68.4365C25.2297 68.3081 25.0187 68.121 24.8682 67.8751C24.7215 67.6292 24.6481 67.3302 24.6481 66.9779C24.6481 66.3834 24.8939 65.9321 25.3856 65.6239C25.8774 65.3119 26.5837 65.1358 27.5048 65.0954L28.6166 65.0404V64.6056C28.6166 63.9928 28.4956 63.5561 28.2534 63.2956C28.0112 63.035 27.6534 62.9048 27.18 62.9048C26.8718 62.9048 26.5746 62.9451 26.2883 63.0258C26.0058 63.1029 25.7177 63.2148 25.4242 63.3616L25.248 62.8992C25.5343 62.7635 25.8407 62.6516 26.1673 62.5635C26.4975 62.4754 26.8424 62.4314 27.2021 62.4314ZM28.6111 65.4752L27.5653 65.5193C26.8057 65.556 26.2278 65.6917 25.8315 65.9266C25.4352 66.1614 25.237 66.5137 25.237 66.9834C25.237 67.3614 25.3545 67.6513 25.5893 67.8531C25.8278 68.0549 26.1581 68.1558 26.5801 68.1558C27.2369 68.1558 27.7378 67.9687 28.0827 67.5944C28.4313 67.2201 28.6075 66.71 28.6111 66.0642V65.4752Z" fill="#EEEEEE"/>
<path d="M31.655 68.5191H31.0936V59.9545H31.655V68.5191Z" fill="#EEEEEE"/>
<path d="M41.2214 62.536V68.5191H40.7701L40.6875 67.4403H40.6545C40.5517 67.6604 40.4068 67.8604 40.2196 68.0402C40.0325 68.22 39.8031 68.3631 39.5316 68.4696C39.26 68.576 38.9445 68.6292 38.5849 68.6292C38.1262 68.6292 37.7409 68.5503 37.429 68.3925C37.1207 68.231 36.8877 67.9889 36.7299 67.6659C36.5721 67.343 36.4932 66.9394 36.4932 66.455V62.536H37.0492V66.4C37.0492 66.9981 37.1831 67.4384 37.451 67.721C37.7225 68.0035 38.1188 68.1448 38.6399 68.1448C39.0802 68.1448 39.449 68.0604 39.7463 67.8916C40.0472 67.7228 40.2747 67.4678 40.4288 67.1265C40.5866 66.7816 40.6655 66.3523 40.6655 65.8385V62.536H41.2214Z" fill="#EEEEEE"/>
<path d="M45.3991 68.6292C44.5808 68.6292 43.957 68.3723 43.5277 67.8586C43.102 67.3412 42.8892 66.5889 42.8892 65.6018C42.8892 64.567 43.1149 63.7781 43.5662 63.235C44.0176 62.6919 44.6469 62.4204 45.4542 62.4204C45.7991 62.4204 46.0982 62.4736 46.3514 62.58C46.6082 62.6864 46.8229 62.8314 46.9954 63.0148C47.1715 63.1946 47.3073 63.4001 47.4027 63.6313H47.4467C47.432 63.4368 47.421 63.2277 47.4137 63.0038C47.4064 62.78 47.4027 62.5745 47.4027 62.3874V59.9545H47.9586V68.5191H47.5073L47.4357 67.4237H47.4027C47.3036 67.6439 47.166 67.8457 46.9899 68.0292C46.8174 68.2127 46.6009 68.3595 46.3404 68.4696C46.0798 68.576 45.7661 68.6292 45.3991 68.6292ZM45.4597 68.1448C46.1642 68.1448 46.6651 67.9265 46.9623 67.4898C47.2596 67.0495 47.4082 66.422 47.4082 65.6073V65.5193C47.4082 64.6753 47.2596 64.0295 46.9623 63.5818C46.6651 63.1304 46.1807 62.9048 45.5092 62.9048C44.845 62.9048 44.3368 63.1359 43.9845 63.5983C43.6359 64.0606 43.4616 64.7322 43.4616 65.6128C43.4616 66.4422 43.6249 67.0715 43.9515 67.5008C44.2818 67.9301 44.7845 68.1448 45.4597 68.1448Z" fill="#EEEEEE"/>
<path d="M51.2502 68.5191L48.9549 62.536H49.5438L51.0795 66.6146C51.1749 66.8605 51.2593 67.0972 51.3327 67.3247C51.4098 67.5485 51.474 67.7522 51.5254 67.9356H51.5529C51.6116 67.7522 51.6777 67.5467 51.7511 67.3192C51.8281 67.0917 51.9125 66.8568 52.0042 66.6146L53.5399 62.536H54.1344L51.8336 68.5191H51.2502Z" fill="#EEEEEE"/>
<path d="M55.6866 62.536V68.5191H55.1307V62.536H55.6866ZM55.4169 60.3233C55.5563 60.3233 55.6591 60.3655 55.7251 60.4499C55.7912 60.5306 55.8242 60.6407 55.8242 60.7801C55.8242 60.9195 55.7912 61.0296 55.7251 61.1104C55.6591 61.1911 55.5563 61.2315 55.4169 61.2315C55.2848 61.2315 55.1857 61.1911 55.1197 61.1104C55.0536 61.0296 55.0206 60.9195 55.0206 60.7801C55.0206 60.6407 55.0536 60.5306 55.1197 60.4499C55.1857 60.3655 55.2848 60.3233 55.4169 60.3233Z" fill="#EEEEEE"/>
<path d="M58.2406 59.9545V64.2753C58.2406 64.5432 58.2369 64.8166 58.2296 65.0954C58.2259 65.3707 58.2204 65.6459 58.2131 65.9211H58.2241C58.3305 65.7963 58.4406 65.6661 58.5543 65.5303C58.6717 65.3908 58.7873 65.2569 58.9011 65.1285L61.2679 62.536H61.9394L59.5781 65.101L62.1486 68.5191H61.4826L59.1983 65.4697L58.2406 66.477V68.5191H57.6846V59.9545H58.2406Z" fill="#EEEEEE"/>
<path d="M63.7118 68.5191H63.1504V59.9545H63.7118V68.5191Z" fill="#EEEEEE"/>
<path d="M66.2548 62.536V68.5191H65.6988V62.536H66.2548ZM65.9851 60.3233C66.1245 60.3233 66.2273 60.3655 66.2933 60.4499C66.3594 60.5306 66.3924 60.6407 66.3924 60.7801C66.3924 60.9195 66.3594 61.0296 66.2933 61.1104C66.2273 61.1911 66.1245 61.2315 65.9851 61.2315C65.853 61.2315 65.7539 61.1911 65.6878 61.1104C65.6218 61.0296 65.5888 60.9195 65.5888 60.7801C65.5888 60.6407 65.6218 60.5306 65.6878 60.4499C65.7539 60.3655 65.853 60.3233 65.9851 60.3233Z" fill="#EEEEEE"/>
<path d="M70.8894 62.4204C71.5609 62.4204 72.0764 62.5965 72.4361 62.9488C72.7957 63.3011 72.9755 63.8533 72.9755 64.6056V68.5191H72.425V64.6386C72.425 64.0441 72.2893 63.6075 72.0177 63.3286C71.7462 63.0497 71.3517 62.9103 70.8343 62.9103C70.1775 62.9103 69.6748 63.1029 69.3261 63.4882C68.9812 63.8698 68.8088 64.4478 68.8088 65.222V68.5191H68.2528V62.536H68.7042L68.7867 63.6258H68.8198C68.9262 63.402 69.0711 63.2001 69.2546 63.0203C69.4417 62.8369 69.6711 62.6919 69.9426 62.5855C70.2142 62.4754 70.5298 62.4204 70.8894 62.4204Z" fill="#EEEEEE"/>
<path d="M76.4982 71.2272C75.746 71.2272 75.1607 71.0822 74.7423 70.7924C74.3277 70.5025 74.1204 70.097 74.1204 69.5759C74.1204 69.1723 74.247 68.8237 74.5002 68.5301C74.7534 68.2402 75.0965 68.0659 75.5295 68.0072C75.357 67.9265 75.2157 67.8164 75.1056 67.6769C74.9992 67.5375 74.946 67.376 74.946 67.1926C74.946 66.9871 75.0102 66.7963 75.1386 66.6201C75.2671 66.4403 75.4597 66.2752 75.7166 66.1247C75.3717 66 75.1001 65.789 74.902 65.4918C74.7038 65.1909 74.6047 64.8294 74.6047 64.4074C74.6047 64.0038 74.691 63.6533 74.8634 63.3561C75.0359 63.0589 75.2799 62.8295 75.5955 62.6681C75.9148 62.5029 76.2909 62.4204 76.7239 62.4204C76.856 62.4204 76.9752 62.424 77.0817 62.4314C77.1917 62.4387 77.2927 62.4516 77.3844 62.4699C77.4761 62.4846 77.5587 62.5048 77.6321 62.5305H79.5641V62.9268L78.3311 63.0093C78.4926 63.2038 78.6137 63.4148 78.6944 63.6423C78.7751 63.8662 78.8155 64.1028 78.8155 64.3524C78.8155 64.9468 78.6283 65.4184 78.2541 65.767C77.8798 66.1156 77.3587 66.2899 76.6908 66.2899C76.5074 66.2899 76.3276 66.2734 76.1514 66.2403C75.9276 66.3724 75.757 66.5064 75.6395 66.6421C75.5221 66.7742 75.4634 66.9394 75.4634 67.1375C75.4634 67.2623 75.5001 67.365 75.5735 67.4458C75.6469 67.5228 75.7533 67.5834 75.8927 67.6274C76.0322 67.6678 76.2028 67.688 76.4046 67.688H77.4559C78.1055 67.688 78.6027 67.8201 78.9476 68.0843C79.2925 68.3485 79.465 68.7374 79.465 69.2512C79.465 69.8786 79.2063 70.3649 78.6889 70.7098C78.1752 71.0547 77.4449 71.2272 76.4982 71.2272ZM76.5367 70.7593C77.0615 70.7593 77.4981 70.7025 77.8467 70.5887C78.199 70.4749 78.4632 70.3061 78.6394 70.0823C78.8155 69.8621 78.9036 69.5888 78.9036 69.2622C78.9036 68.9943 78.8393 68.787 78.7109 68.6402C78.5825 68.4934 78.4008 68.3925 78.166 68.3375C77.9311 68.2787 77.6541 68.2494 77.3349 68.2494H76.3331C76.0138 68.2494 75.7294 68.2934 75.4799 68.3815C75.2304 68.4659 75.0359 68.6017 74.8965 68.7888C74.7607 68.976 74.6928 69.2255 74.6928 69.5374C74.6928 69.9374 74.8488 70.2401 75.1607 70.4456C75.4762 70.6548 75.9349 70.7593 76.5367 70.7593ZM76.7129 65.844C77.2083 65.844 77.588 65.7193 77.8522 65.4697C78.1165 65.2202 78.2486 64.8588 78.2486 64.3854C78.2486 63.879 78.1128 63.4992 77.8412 63.246C77.5697 62.9928 77.1899 62.8662 76.7019 62.8662C76.2285 62.8662 75.856 63.002 75.5845 63.2735C75.3166 63.5414 75.1827 63.9194 75.1827 64.4074C75.1827 64.8624 75.3111 65.2165 75.568 65.4697C75.8249 65.7193 76.2065 65.844 76.7129 65.844Z" fill="#EEEEEE"/>
<path d="M89.8736 62.4204C90.4497 62.4204 90.9047 62.5873 91.2386 62.9213C91.5725 63.2552 91.7395 63.7818 91.7395 64.501V68.5191H91.1946V64.523C91.1946 63.9689 91.068 63.5616 90.8148 63.3011C90.5616 63.0405 90.2277 62.9103 89.813 62.9103C89.2442 62.9103 88.7984 63.0772 88.4755 63.4111C88.1562 63.7414 87.9966 64.2625 87.9966 64.9744V68.5191H87.4462V64.523C87.4462 64.1524 87.3875 63.8496 87.27 63.6148C87.1563 63.3763 86.9967 63.2001 86.7912 63.0864C86.5857 62.969 86.3435 62.9103 86.0646 62.9103C85.694 62.9103 85.3729 62.9873 85.1014 63.1414C84.8298 63.2919 84.6207 63.5267 84.4739 63.846C84.3271 64.1616 84.2537 64.5634 84.2537 65.0514V68.5191H83.6978V62.536H84.1491L84.2317 63.5157H84.2647C84.3638 63.3212 84.4959 63.1414 84.661 62.9763C84.8261 62.8112 85.0298 62.6772 85.272 62.5745C85.5179 62.4717 85.8059 62.4204 86.1362 62.4204C86.5655 62.4204 86.9288 62.5176 87.226 62.7121C87.5269 62.9029 87.7361 63.1873 87.8535 63.5653H87.892C88.0535 63.2057 88.303 62.9249 88.6406 62.7231C88.9819 62.5213 89.3929 62.4204 89.8736 62.4204Z" fill="#EEEEEE"/>
<path d="M95.9282 62.4204C96.4383 62.4204 96.8621 62.5396 97.1997 62.7782C97.541 63.0167 97.7942 63.3433 97.9593 63.7579C98.1281 64.1726 98.2125 64.6478 98.2125 65.1835V65.5853H93.8917C93.8917 66.4073 94.0806 67.0385 94.4586 67.4788C94.8402 67.9191 95.3852 68.1393 96.0934 68.1393C96.464 68.1393 96.7851 68.1099 97.0566 68.0512C97.3318 67.9889 97.6364 67.8843 97.9703 67.7375V68.2494C97.6768 68.3815 97.3832 68.4769 97.0896 68.5356C96.7961 68.598 96.4585 68.6292 96.0769 68.6292C95.4714 68.6292 94.9632 68.5044 94.5522 68.2549C94.1449 68.0017 93.8366 67.6458 93.6275 67.1871C93.422 66.7284 93.3192 66.1926 93.3192 65.5798C93.3192 64.9817 93.4183 64.4441 93.6165 63.9671C93.8183 63.49 94.1118 63.1139 94.4971 62.8387C94.8861 62.5598 95.3631 62.4204 95.9282 62.4204ZM95.9227 62.8992C95.3503 62.8992 94.8861 63.0901 94.5302 63.4717C94.1779 63.8496 93.9706 64.3964 93.9082 65.112H97.6346C97.6346 64.6753 97.5722 64.29 97.4474 63.9561C97.3227 63.6221 97.1337 63.3634 96.8805 63.18C96.631 62.9928 96.3117 62.8992 95.9227 62.8992Z" fill="#EEEEEE"/>
<path d="M102.027 68.6292C101.209 68.6292 100.585 68.3723 100.156 67.8586C99.7298 67.3412 99.517 66.5889 99.517 65.6018C99.517 64.567 99.7427 63.7781 100.194 63.235C100.645 62.6919 101.275 62.4204 102.082 62.4204C102.427 62.4204 102.726 62.4736 102.979 62.58C103.236 62.6864 103.451 62.8314 103.623 63.0148C103.799 63.1946 103.935 63.4001 104.031 63.6313H104.075C104.06 63.4368 104.049 63.2277 104.042 63.0038C104.034 62.78 104.031 62.5745 104.031 62.3874V59.9545H104.586V68.5191H104.135L104.064 67.4237H104.031C103.931 67.6439 103.794 67.8457 103.618 68.0292C103.445 68.2127 103.229 68.3595 102.968 68.4696C102.708 68.576 102.394 68.6292 102.027 68.6292ZM102.088 68.1448C102.792 68.1448 103.293 67.9265 103.59 67.4898C103.887 67.0495 104.036 66.422 104.036 65.6073V65.5193C104.036 64.6753 103.887 64.0295 103.59 63.5818C103.293 63.1304 102.809 62.9048 102.137 62.9048C101.473 62.9048 100.965 63.1359 100.612 63.5983C100.264 64.0606 100.089 64.7322 100.089 65.6128C100.089 66.4422 100.253 67.0715 100.579 67.5008C100.91 67.9301 101.412 68.1448 102.088 68.1448Z" fill="#EEEEEE"/>
<path d="M110.058 59.9545V62.7506C110.058 62.9121 110.054 63.0625 110.047 63.202C110.043 63.3414 110.036 63.4827 110.025 63.6258H110.063C110.162 63.3983 110.304 63.1946 110.487 63.0148C110.674 62.835 110.903 62.6919 111.175 62.5855C111.45 62.4791 111.768 62.4259 112.127 62.4259C112.582 62.4259 112.964 62.5048 113.272 62.6626C113.584 62.8167 113.821 63.0534 113.982 63.3726C114.144 63.6919 114.224 64.1028 114.224 64.6056V68.5191H113.674V64.6386C113.674 64.0441 113.538 63.6075 113.267 63.3286C112.995 63.0497 112.601 62.9103 112.083 62.9103C111.643 62.9103 111.272 62.9965 110.971 63.169C110.67 63.3378 110.443 63.5946 110.289 63.9396C110.135 64.2808 110.058 64.7083 110.058 65.222V68.5191H109.502V59.9545H110.058Z" fill="#EEEEEE"/>
<path d="M115.342 71.2272C115.18 71.2272 115.037 71.2144 114.912 71.1887C114.788 71.1666 114.679 71.1373 114.588 71.1006V70.6217C114.701 70.6658 114.817 70.6951 114.934 70.7098C115.048 70.7281 115.169 70.7373 115.298 70.7373C115.577 70.7373 115.789 70.6511 115.936 70.4786C116.087 70.3061 116.162 70.0419 116.162 69.686V62.536H116.718V69.7025C116.718 70.0328 116.661 70.3117 116.547 70.5392C116.437 70.7667 116.279 70.9373 116.074 71.0511C115.868 71.1685 115.624 71.2272 115.342 71.2272ZM116.052 60.7801C116.052 60.6407 116.085 60.5306 116.151 60.4499C116.217 60.3655 116.316 60.3233 116.448 60.3233C116.588 60.3233 116.69 60.3655 116.756 60.4499C116.822 60.5306 116.855 60.6407 116.855 60.7801C116.855 60.9195 116.822 61.0296 116.756 61.1104C116.69 61.1911 116.588 61.2315 116.448 61.2315C116.316 61.2315 116.217 61.1911 116.151 61.1104C116.085 61.0296 116.052 60.9195 116.052 60.7801Z" fill="#EEEEEE"/>
<path d="M120.984 62.4204C121.494 62.4204 121.918 62.5396 122.255 62.7782C122.596 63.0167 122.85 63.3433 123.015 63.7579C123.183 64.1726 123.268 64.6478 123.268 65.1835V65.5853H118.947C118.947 66.4073 119.136 67.0385 119.514 67.4788C119.896 67.9191 120.441 68.1393 121.149 68.1393C121.519 68.1393 121.84 68.1099 122.112 68.0512C122.387 67.9889 122.692 67.8843 123.026 67.7375V68.2494C122.732 68.3815 122.439 68.4769 122.145 68.5356C121.851 68.598 121.514 68.6292 121.132 68.6292C120.527 68.6292 120.019 68.5044 119.608 68.2549C119.2 68.0017 118.892 67.6458 118.683 67.1871C118.477 66.7284 118.375 66.1926 118.375 65.5798C118.375 64.9817 118.474 64.4441 118.672 63.9671C118.874 63.49 119.167 63.1139 119.553 62.8387C119.941 62.5598 120.419 62.4204 120.984 62.4204ZM120.978 62.8992C120.406 62.8992 119.941 63.0901 119.586 63.4717C119.233 63.8496 119.026 64.3964 118.964 65.112H122.69C122.69 64.6753 122.628 64.29 122.503 63.9561C122.378 63.6221 122.189 63.3634 121.936 63.18C121.686 62.9928 121.367 62.8992 120.978 62.8992Z" fill="#EEEEEE"/>
<path d="M127.297 62.4314C127.455 62.4314 127.603 62.4406 127.743 62.4589C127.882 62.4773 128.013 62.5029 128.134 62.536L128.046 63.0479C127.924 63.0148 127.802 62.991 127.677 62.9763C127.552 62.958 127.418 62.9488 127.275 62.9488C126.992 62.9488 126.739 63.002 126.515 63.1084C126.295 63.2148 126.108 63.3671 125.954 63.5653C125.8 63.7634 125.682 64.0019 125.602 64.2808C125.521 64.5597 125.481 64.8716 125.481 65.2165V68.5191H124.919V62.536H125.398L125.453 63.6643H125.486C125.578 63.4332 125.706 63.2258 125.871 63.0424C126.04 62.8552 126.244 62.7066 126.482 62.5965C126.721 62.4864 126.992 62.4314 127.297 62.4314Z" fill="#EEEEEE"/>
<path d="M130.924 68.1503C131.097 68.1503 131.256 68.1375 131.403 68.1118C131.554 68.0861 131.686 68.0531 131.799 68.0127V68.4751C131.682 68.5154 131.544 68.5503 131.387 68.5796C131.229 68.6127 131.055 68.6292 130.864 68.6292C130.526 68.6292 130.245 68.5668 130.022 68.442C129.798 68.3136 129.629 68.121 129.515 67.8641C129.401 67.6036 129.345 67.2733 129.345 66.8733V62.9983H128.453V62.6681L129.339 62.4974L129.532 61.0883H129.901V62.536H131.766V62.9983H129.901V66.8403C129.901 67.2696 129.979 67.5962 130.137 67.8201C130.299 68.0402 130.561 68.1503 130.924 68.1503Z" fill="#EEEEEE"/>
<path d="M135.35 62.4204C135.86 62.4204 136.284 62.5396 136.621 62.7782C136.962 63.0167 137.216 63.3433 137.381 63.7579C137.55 64.1726 137.634 64.6478 137.634 65.1835V65.5853H133.313C133.313 66.4073 133.502 67.0385 133.88 67.4788C134.262 67.9191 134.807 68.1393 135.515 68.1393C135.885 68.1393 136.207 68.1099 136.478 68.0512C136.753 67.9889 137.058 67.8843 137.392 67.7375V68.2494C137.098 68.3815 136.805 68.4769 136.511 68.5356C136.218 68.598 135.88 68.6292 135.498 68.6292C134.893 68.6292 134.385 68.5044 133.974 68.2549C133.566 68.0017 133.258 67.6458 133.049 67.1871C132.843 66.7284 132.741 66.1926 132.741 65.5798C132.741 64.9817 132.84 64.4441 133.038 63.9671C133.24 63.49 133.533 63.1139 133.919 62.8387C134.308 62.5598 134.785 62.4204 135.35 62.4204ZM135.344 62.8992C134.772 62.8992 134.308 63.0901 133.952 63.4717C133.599 63.8496 133.392 64.3964 133.33 65.112H137.056C137.056 64.6753 136.994 64.29 136.869 63.9561C136.744 63.6221 136.555 63.3634 136.302 63.18C136.052 62.9928 135.733 62.8992 135.344 62.8992Z" fill="#EEEEEE"/>
<path d="M140.898 68.1503C141.071 68.1503 141.23 68.1375 141.377 68.1118C141.527 68.0861 141.659 68.0531 141.773 68.0127V68.4751C141.656 68.5154 141.518 68.5503 141.36 68.5796C141.203 68.6127 141.028 68.6292 140.837 68.6292C140.5 68.6292 140.219 68.5668 139.995 68.442C139.772 68.3136 139.603 68.121 139.489 67.8641C139.375 67.6036 139.318 67.2733 139.318 66.8733V62.9983H138.427V62.6681L139.313 62.4974L139.505 61.0883H139.874V62.536H141.74V62.9983H139.874V66.8403C139.874 67.2696 139.953 67.5962 140.111 67.8201C140.272 68.0402 140.535 68.1503 140.898 68.1503Z" fill="#EEEEEE"/>
<path d="M145.472 64.4404V60.4719H146.138L147.36 63.824L148.615 60.4719H149.254V64.4404H148.802V62.2663C148.802 62.0754 148.804 61.8828 148.808 61.6883C148.815 61.4938 148.821 61.303 148.824 61.1159H148.791L147.531 64.4404H147.14L145.918 61.0883H145.885C145.892 61.2792 145.896 61.4663 145.896 61.6498C145.9 61.8333 145.901 62.0204 145.901 62.2112V64.4404H145.472ZM143.331 64.4404V60.8737H142.125V60.4719H144.999V60.8737H143.782V64.4404H143.331Z" fill="#EEEEEE"/>
</svg>
