<svg width="2400" height="1148" viewBox="0 0 2400 1148" fill="none" xmlns="http://www.w3.org/2000/svg">
<path d="M1330.16 697.708H1400.71C1417.13 697.708 1430.51 711.09 1430.51 727.514V771.919C1430.51 800.509 1453.62 823.015 1482.21 822.407C1514.45 821.799 1530.87 805.375 1530.87 772.527V722.648C1530.87 689.192 1497.42 647.22 1430.51 597.34C1363.61 547.46 1330.16 488.456 1330.16 422.153V372.273C1330.16 288.938 1398.28 220.809 1481.6 221.418C1580.74 222.026 1630.61 271.906 1630.61 371.665V447.093H1561.28C1544.25 447.093 1530.26 433.102 1530.26 416.07V372.882C1530.26 344.292 1507.15 321.785 1478.56 322.394C1446.33 323.002 1429.9 339.426 1429.9 372.273V422.153C1429.9 455.609 1463.36 497.581 1530.26 547.46C1597.16 597.34 1630.61 656.344 1630.61 722.648V772.527C1630.61 855.863 1562.49 923.991 1479.17 923.383C1380.03 922.775 1330.16 872.895 1330.16 773.136V697.708V697.708ZM1750.43 221.418H2001.01V291.371C2001.01 308.403 1987.63 321.785 1970.6 321.785H1850.79V522.521H1976.08V622.888H1850.79V823.623H1970.6C1987.63 823.623 2001.62 837.614 2001.62 854.646V923.991H1751.04V221.418H1750.43ZM2099.54 697.708H2167.66C2185.3 697.708 2199.9 712.307 2199.9 729.947V772.527C2199.9 801.117 2223.01 823.623 2251.6 823.015C2283.83 822.407 2300.25 805.983 2300.25 773.136V723.256C2300.25 689.8 2266.8 647.828 2199.9 597.948C2133 548.069 2099.54 489.065 2099.54 422.761V372.882C2099.54 289.546 2167.66 221.418 2250.99 222.026C2350.13 222.634 2400 272.514 2400 372.273V447.701H2329.45C2313.03 447.701 2299.64 434.319 2299.64 417.895V372.882C2299.64 344.292 2276.53 321.785 2247.95 322.394C2215.71 323.002 2199.29 339.426 2199.29 372.273V422.153C2199.29 455.609 2232.74 497.581 2299.64 547.46C2366.55 597.34 2400 656.344 2400 722.648V772.527C2400 855.863 2331.88 923.991 2248.56 923.383C2149.42 922.775 2099.54 872.895 2099.54 773.136V697.708V697.708Z" fill="#E9E9E9"/>
<path d="M495.085 550.501L311.405 441.009L495.085 335.775V550.501Z" fill="#BCBCBC"/>
<path d="M532.184 335.775L715.255 441.009L532.184 550.501V335.775Z" fill="#BBBBBB"/>
<path d="M495.085 611.939L311.405 720.823L495.085 826.665V611.939ZM532.186 611.939V826.665L715.257 720.823L532.186 611.939Z" fill="#E9E9E9"/>
<path d="M466.496 582.74L296.806 680.675L297.414 481.764L466.496 582.74Z" fill="#BCBCBC"/>
<path d="M729.242 481.764L729.85 680.675L560.159 582.74L729.242 481.764Z" fill="#BBBBBB"/>
<path d="M511.504 0C502.989 0 495.082 2.43316 487.784 6.08289L59.6035 253.048L251.19 367.406C258.488 371.664 267.003 374.098 275.518 374.098C284.033 374.098 291.94 372.273 299.238 368.015L492.041 257.306C498.123 253.656 504.814 252.44 511.504 252.44C518.194 252.44 524.885 254.265 530.967 257.914L720.728 368.015C728.027 372.273 736.542 374.706 745.057 374.706C752.963 374.706 761.478 372.881 768.777 368.623L967.662 257.914L535.832 7.90775C528.534 2.43316 520.019 0 511.504 0Z" fill="#E9E9E9"/>
<path d="M0.60821 363.148L196.452 479.94C212.874 489.672 223.213 507.921 223.213 527.386L222.605 729.338C222.605 743.937 229.904 756.711 242.676 764.01L432.438 874.111C444.602 881.41 451.9 894.184 451.9 908.175V1147.84L26.1531 900.267C9.73137 891.143 0 873.502 0 854.646L0.60821 363.148Z" fill="#BBBBBB"/>
<path d="M574.759 1146.62V913.649C574.759 896.009 584.49 879.585 599.695 871.069L782.767 765.835C795.539 758.536 803.446 744.545 803.446 729.946L804.054 520.087C804.054 504.271 812.569 489.672 826.558 481.764L1027.27 370.448L1026.66 849.779C1026.66 873.502 1013.89 894.792 993.816 906.958L574.759 1146.62V1146.62Z" fill="#BCBCBC"/>
</svg>
