<svg width="2400" height="657" viewBox="0 0 2400 657" fill="none" xmlns="http://www.w3.org/2000/svg">
<path d="M343.6 84.8C482.8 106.8 588 220.4 588 366.8C588 528.4 460.4 656.4 294 656.4C127.6 656.4 0 528.4 0 366.8C0 220 105.2 106.8 244.4 84.8V0H343.6V84.8ZM472.4 367.2C472.4 278 420.8 210.4 343.6 190.4V359.6H244.4V190.4C167.2 210.4 115.6 278 115.6 367.2C115.6 470 192.4 547.6 294 547.6C395.6 547.6 472.4 470 472.4 367.2Z" fill="white"/>
<path d="M895.602 257.601V362.801C848.802 363.601 785.202 378.801 756.802 408.401V647.201H651.602V258.801H756.802V300.001C797.202 268.801 852.802 255.601 895.602 257.601Z" fill="white"/>
<path d="M918 585.599L976.4 510.799C1002.4 543.199 1041.6 561.599 1082.4 561.599C1107.6 561.599 1123.6 550.399 1123.6 532.799C1123.6 505.999 1098.4 500.399 1049.6 489.599C971.6 472.399 933.2 433.999 933.2 370.799C933.2 302.799 996 251.199 1078 251.199C1133.2 251.199 1182 270.399 1218 307.599L1166.4 376.799C1139.6 353.199 1111.2 342.399 1079.2 342.399C1054 342.399 1038 352.799 1038 367.999C1038 389.199 1056.4 393.599 1110.8 405.199C1185.2 420.399 1226.4 465.199 1226.4 530.399C1226.4 601.599 1167.2 653.199 1085.2 653.199C1017.6 653.599 953.2 627.999 918 585.599Z" fill="white"/>
<path d="M1555.2 628.399C1524 643.999 1490.4 652 1458.8 652C1379.2 652 1315.6 599.999 1315.6 501.599V353.599H1252.4V258.799H1315.6V135.199H1420V258.799H1523.6L1497.2 353.599H1420V489.199C1420 537.199 1444 559.999 1477.6 559.999C1493.6 559.999 1512 554.799 1530.8 544.799L1555.2 628.399Z" fill="white"/>
<path d="M1770 559.599C1815.2 559.599 1844.4 539.599 1864.8 510.799L1932.4 577.199C1896.8 624.799 1836.8 654.799 1770 654.799C1651.6 654.799 1562.4 567.999 1562.4 452.799C1562.4 337.999 1649.6 251.199 1765.2 251.199C1875.2 251.199 1952.8 337.199 1952.8 447.199C1952.8 460.799 1951.6 474.799 1950 484.799H1672.8C1685.2 530.399 1722.8 559.599 1770 559.599ZM1675.6 410.399H1847.6C1836.8 368.799 1806 341.999 1765.2 341.999C1722 341.999 1688.8 368.399 1675.6 410.399Z" fill="white"/>
<path d="M2400 88V647.6H2294.8V629.2C2266.4 646 2233.2 655.2 2197.6 655.2C2084 655.2 1998.4 568.4 1998.4 453.6C1998.4 338.8 2084 252 2197.6 252C2233.2 252 2266.8 260.8 2294.8 277.6V88.3999H2400V88ZM2294.8 522.8V384C2277.2 363.2 2247.6 348 2211.6 348C2150.8 348 2107.2 393.6 2107.2 453.6C2107.2 513.6 2151.2 558.8 2211.6 559.2C2247.2 559.2 2277.2 543.6 2294.8 522.8Z" fill="white"/>
</svg>
