<svg width="1530" height="1846" viewBox="0 0 1530 1846" fill="none" xmlns="http://www.w3.org/2000/svg">
<path d="M468.817 1538.05L524.295 1469.15L502.823 1363.59L542.797 1298.01L552.736 1243.02L531.092 1196.43L570.619 1216.31L633.772 1194.67L672.42 1091.32L719.897 1071.45L709.078 933.209L883.75 888.824L950.442 749.038L891.707 698.469L813.979 712.603L750.825 686.54L715.933 481.834L800.292 284.639L800.068 166.721L761.197 87.2275L795.21 10.1556L772.672 0L686.554 70.4408L613.021 77.5115L489.359 285.742L379.161 346.913L298.564 335.215L234.964 368.558L171.147 367.232L67.3559 522.695L100.043 619.631L153.92 671.966L228.34 609.475L266.101 546.321L276.04 456.888L190.571 495.313L200.727 458.662L341.176 407.869L390.642 428.627L523.142 382.7L494.88 431.719L446.293 415.819L357.747 493.547L364.817 558.913L411.408 626.709L353.552 645.261L339.194 549.421L264.551 570.626L194.766 741.765L120.131 679.275L79.2702 679.714L43.7291 642.825L17.0029 695.16L8.38975 951.538L66.4693 978.257L100.482 1067.25L29.1551 1140.78L0 1281.46L33.35 1304.2L66.0297 1270.41L116.606 1341.96L175.788 1357.86L188.813 1679.38L244.687 1673.86L371.441 1706.76L418.695 1734.58L491.572 1688.87L565.321 1677.6L556.938 1628.14L468.817 1538.05ZM864.094 1716.26L902.518 1757.55L975.518 1554.53L944.157 1564.71L864.094 1716.26ZM571.721 1665.9L636.201 1699.25L655.194 1639.4L575.03 1568.52L571.721 1665.9ZM912.234 1397.38L877.782 1349.69L811.543 1337.55L805.798 1288.96L754.343 1251.64L575.469 1271.39L550.293 1312.02L603.969 1409.1L604.408 1465.63L682.806 1506.03L751.928 1576.03L829.209 1594.59L895.239 1568.08L912.234 1397.38ZM968.988 247.764L1008.07 226.12L956.172 230.754L901.408 265.43L958.601 301.202L968.988 247.764ZM1379.05 1597.46L1340.41 1512.22L1384.36 1458.56L1454.58 1438.46L1469.61 1382.15L1392.98 1334.68L1433.39 1231.99L1468.94 1229.56L1509.13 1113.41L1475.35 1041.64L1508.03 967.006L1380.4 922.837L1258.5 1020.89L1312.83 1037.22L1263.8 1120.48L1260.71 1163.76L1184.53 1041.2L1059.11 1173.04L1015.38 1169.95L999.483 1205.94L1052.04 1359.41L1036.58 1417.26L1072.35 1486.6L1126.9 1472.03L1204.63 1493.67L1288.76 1612.25L1247.89 1671.78L1142.62 1692.19L1075.44 1632.57L1018.24 1640.52L1001.69 1750.05L1148.98 1823.81L1256.74 1809.01L1288.56 1845.18L1390.56 1689.54L1315.04 1627.49L1379.05 1597.46ZM1441.56 1571.17L1436.7 1620.41L1501.18 1618.87L1511.55 1586.19L1441.56 1571.17Z" fill="url(#paint0_linear_800_1047)"/>
<g filter="url(#filter0_b_800_1047)">
<rect x="1301" y="1137.09" width="211" height="158.623" fill="black"/>
<rect x="1292.27" y="1128.36" width="228.462" height="176.085" stroke="white" stroke-opacity="0.49" stroke-width="17.4621"/>
<path d="M1379.72 1266.48C1373.67 1266.48 1368.32 1265.49 1363.67 1263.52C1359.06 1261.5 1355.44 1258.46 1352.8 1254.38C1350.17 1250.31 1348.85 1245.12 1348.85 1238.83C1348.85 1233.64 1349.74 1229.22 1351.51 1225.56C1353.28 1221.85 1355.75 1218.83 1358.92 1216.48C1362.08 1214.14 1365.77 1212.35 1369.96 1211.11C1374.2 1209.88 1378.77 1209.08 1383.67 1208.71C1388.98 1208.29 1393.23 1207.8 1396.44 1207.22C1399.7 1206.61 1402.04 1205.76 1403.48 1204.69C1404.92 1203.58 1405.64 1202.12 1405.64 1200.31V1200.06C1405.64 1197.59 1404.7 1195.7 1402.8 1194.38C1400.91 1193.07 1398.48 1192.41 1395.52 1192.41C1392.27 1192.41 1389.61 1193.13 1387.56 1194.57C1385.54 1195.97 1384.33 1198.13 1383.91 1201.05H1352.56C1352.97 1195.29 1354.8 1189.98 1358.05 1185.13C1361.34 1180.23 1366.14 1176.32 1372.43 1173.4C1378.73 1170.44 1386.59 1168.95 1396.01 1168.95C1402.8 1168.95 1408.89 1169.76 1414.28 1171.36C1419.67 1172.92 1424.26 1175.13 1428.05 1177.97C1431.83 1180.76 1434.72 1184.06 1436.69 1187.84C1438.71 1191.59 1439.71 1195.66 1439.71 1200.06V1265H1407.86V1251.67H1407.12C1405.23 1255.21 1402.93 1258.07 1400.21 1260.25C1397.54 1262.43 1394.47 1264.01 1391.01 1265C1387.6 1265.99 1383.83 1266.48 1379.72 1266.48ZM1390.83 1245C1393.42 1245 1395.85 1244.47 1398.11 1243.4C1400.42 1242.33 1402.29 1240.78 1403.73 1238.77C1405.17 1236.75 1405.89 1234.3 1405.89 1231.42V1223.52C1404.98 1223.89 1404.02 1224.24 1402.99 1224.57C1402 1224.9 1400.93 1225.21 1399.78 1225.5C1398.67 1225.78 1397.47 1226.05 1396.2 1226.3C1394.96 1226.54 1393.67 1226.77 1392.31 1226.98C1389.68 1227.39 1387.51 1228.07 1385.83 1229.01C1384.18 1229.92 1382.95 1231.05 1382.12 1232.41C1381.34 1233.73 1380.95 1235.21 1380.95 1236.85C1380.95 1239.49 1381.88 1241.5 1383.73 1242.9C1385.58 1244.3 1387.95 1245 1390.83 1245ZM1464.77 1266.65C1460.79 1266.65 1457.38 1265.26 1454.54 1262.48C1451.72 1259.67 1450.33 1256.26 1450.37 1252.24C1450.33 1248.33 1451.72 1244.99 1454.54 1242.21C1457.38 1239.43 1460.79 1238.05 1464.77 1238.05C1468.54 1238.05 1471.87 1239.43 1474.75 1242.21C1477.67 1244.99 1479.14 1248.33 1479.17 1252.24C1479.14 1254.92 1478.44 1257.35 1477.07 1259.55C1475.73 1261.71 1473.98 1263.44 1471.82 1264.74C1469.66 1266.01 1467.31 1266.65 1464.77 1266.65ZM1464.77 1213.56C1460.79 1213.56 1457.38 1212.17 1454.54 1209.39C1451.72 1206.58 1450.33 1203.17 1450.37 1199.16C1450.33 1195.25 1451.72 1191.91 1454.54 1189.13C1457.38 1186.35 1460.79 1184.96 1464.77 1184.96C1468.54 1184.96 1471.87 1186.35 1474.75 1189.13C1477.67 1191.91 1479.14 1195.25 1479.17 1199.16C1479.14 1201.83 1478.44 1204.27 1477.07 1206.46C1475.73 1208.62 1473.98 1210.35 1471.82 1211.66C1469.66 1212.93 1467.31 1213.56 1464.77 1213.56Z" fill="white" fill-opacity="0.9"/>
</g>
<g filter="url(#filter1_b_800_1047)">
<rect x="604" y="819.09" width="211" height="158.623" fill="black"/>
<rect x="595.269" y="810.359" width="228.462" height="176.085" stroke="white" stroke-opacity="0.49" stroke-width="17.4621"/>
<path d="M682.717 948.481C676.668 948.481 671.318 947.494 666.668 945.519C662.059 943.502 658.438 940.457 655.804 936.383C653.17 932.309 651.854 927.124 651.854 920.828C651.854 915.643 652.738 911.219 654.508 907.557C656.277 903.853 658.746 900.829 661.915 898.483C665.084 896.137 668.767 894.347 672.964 893.113C677.203 891.878 681.77 891.076 686.667 890.705C691.976 890.294 696.235 889.8 699.445 889.224C702.696 888.607 705.041 887.763 706.482 886.693C707.922 885.582 708.642 884.121 708.642 882.311V882.064C708.642 879.595 707.695 877.702 705.803 876.385C703.91 875.068 701.482 874.41 698.519 874.41C695.268 874.41 692.614 875.13 690.556 876.57C688.54 877.969 687.326 880.13 686.914 883.051H655.557C655.969 877.29 657.8 871.982 661.051 867.126C664.343 862.229 669.137 858.32 675.433 855.398C681.729 852.435 689.589 850.954 699.013 850.954C705.803 850.954 711.893 851.756 717.284 853.361C722.674 854.925 727.263 857.126 731.049 859.966C734.835 862.764 737.715 866.056 739.69 869.842C741.707 873.587 742.715 877.661 742.715 882.064V947H710.864V933.667H710.123C708.23 937.206 705.926 940.066 703.21 942.247C700.535 944.428 697.469 946.012 694.013 947C690.597 947.988 686.832 948.481 682.717 948.481ZM693.828 927.001C696.42 927.001 698.848 926.466 701.111 925.396C703.416 924.326 705.288 922.783 706.728 920.766C708.169 918.75 708.889 916.301 708.889 913.421V905.52C707.984 905.89 707.016 906.24 705.988 906.569C705 906.898 703.93 907.207 702.778 907.495C701.667 907.783 700.473 908.051 699.198 908.298C697.963 908.544 696.667 908.771 695.309 908.977C692.675 909.388 690.515 910.067 688.828 911.013C687.182 911.919 685.947 913.05 685.124 914.408C684.342 915.725 683.951 917.207 683.951 918.853C683.951 921.486 684.877 923.503 686.729 924.902C688.581 926.301 690.947 927.001 693.828 927.001ZM767.772 948.646C763.794 948.646 760.382 947.257 757.536 944.48C754.724 941.668 753.335 938.255 753.369 934.243C753.335 930.334 754.724 926.99 757.536 924.213C760.382 921.435 763.794 920.046 767.772 920.046C771.544 920.046 774.87 921.435 777.751 924.213C780.666 926.99 782.14 930.334 782.175 934.243C782.14 936.918 781.438 939.353 780.066 941.547C778.728 943.708 776.979 945.44 774.819 946.743C772.659 948.012 770.31 948.646 767.772 948.646ZM767.772 895.561C763.794 895.561 760.382 894.172 757.536 891.395C754.724 888.583 753.335 885.171 753.369 881.158C753.335 877.249 754.724 873.906 757.536 871.128C760.382 868.35 763.794 866.961 767.772 866.961C771.544 866.961 774.87 868.35 777.751 871.128C780.666 873.906 782.14 877.249 782.175 881.158C782.14 883.833 781.438 886.268 780.066 888.463C778.728 890.623 776.979 892.355 774.819 893.658C772.659 894.927 770.31 895.561 767.772 895.561Z" fill="white" fill-opacity="0.9"/>
</g>
<defs>
<filter id="filter0_b_800_1047" x="1279.76" y="1115.84" width="253.489" height="201.114" filterUnits="userSpaceOnUse" color-interpolation-filters="sRGB">
<feFlood flood-opacity="0" result="BackgroundImageFix"/>
<feGaussianBlur in="BackgroundImageFix" stdDeviation="1.89172"/>
<feComposite in2="SourceAlpha" operator="in" result="effect1_backgroundBlur_800_1047"/>
<feBlend mode="normal" in="SourceGraphic" in2="effect1_backgroundBlur_800_1047" result="shape"/>
</filter>
<filter id="filter1_b_800_1047" x="582.756" y="797.844" width="253.489" height="201.114" filterUnits="userSpaceOnUse" color-interpolation-filters="sRGB">
<feFlood flood-opacity="0" result="BackgroundImageFix"/>
<feGaussianBlur in="BackgroundImageFix" stdDeviation="1.89172"/>
<feComposite in2="SourceAlpha" operator="in" result="effect1_backgroundBlur_800_1047"/>
<feBlend mode="normal" in="SourceGraphic" in2="effect1_backgroundBlur_800_1047" result="shape"/>
</filter>
<linearGradient id="paint0_linear_800_1047" x1="756" y1="-143.5" x2="756" y2="2055.5" gradientUnits="userSpaceOnUse">
<stop stop-color="white" stop-opacity="0.7"/>
<stop offset="0.485" stop-color="#E1E1E1"/>
<stop offset="1" stop-color="white" stop-opacity="0.7"/>
</linearGradient>
</defs>
</svg>
