<svg width="2589" height="550" viewBox="0 0 2589 550" fill="none" xmlns="http://www.w3.org/2000/svg">
<path d="M2017.69 452.745H2192.53V538.696H1864.44V490.109L2045.34 266.597H1868.91V180.624H2192.68V235.946L2017.69 452.745ZM2265.4 180.624V266.597H2441.81L2260.91 490.109V538.696H2589V452.745H2414.16L2589 235.946V180.624H2265.4ZM1783.6 538.696H1675.81V180.624H1783.6V538.675V538.696ZM1729.32 121.179C1721.09 121.605 1712.87 120.388 1705.12 117.598C1697.37 114.809 1690.25 110.503 1684.19 104.932C1678.12 99.3613 1673.23 92.6376 1669.79 85.1538C1666.36 77.67 1664.45 69.5763 1664.17 61.3456C1664.12 53.1336 1665.77 44.9995 1669.02 37.46C1672.28 29.9204 1677.07 23.1402 1683.08 17.5498C1695.72 6.06839 1712.25 -0.181467 1729.32 0.0660314C1737.61 -0.318608 1745.9 0.980161 1753.68 3.88407C1761.46 6.78798 1768.57 11.2369 1774.58 16.9628C1780.6 22.6886 1785.39 29.5728 1788.67 37.2006C1791.96 44.8283 1793.66 53.0416 1793.68 61.3456C1793.72 69.3304 1792.09 77.2345 1788.9 84.5552C1785.71 91.8759 1781.03 98.4529 1775.16 103.868C1762.63 115.241 1746.24 121.429 1729.32 121.179ZM1426.27 546.229C1390.37 546.807 1355.08 536.922 1324.71 517.78V538.675H1220.88V30.3497H1324.71V201.863C1355.09 182.746 1390.38 172.884 1426.27 173.479C1449.85 173.146 1473.23 177.836 1494.86 187.237C1516.49 196.638 1535.87 210.534 1551.72 228.003C1568.68 245.373 1582.03 265.931 1591 288.489C1599.97 311.047 1604.39 335.159 1603.99 359.433C1604.62 383.967 1600.32 408.378 1591.34 431.218C1582.36 454.057 1568.89 474.862 1551.72 492.397C1535.74 509.654 1516.32 523.364 1494.71 532.638C1473.1 541.911 1449.78 546.542 1426.27 546.229ZM1409 261.697C1392.66 261.162 1376.43 264.617 1361.73 271.763C1347.02 278.909 1334.28 289.53 1324.6 302.708V416.979C1334.09 430.406 1346.78 441.261 1361.51 448.563C1376.24 455.866 1392.56 459.388 1409 458.81C1421.44 459.12 1433.79 456.668 1445.17 451.629C1456.55 446.59 1466.68 439.091 1474.81 429.671C1492.42 410.564 1502.04 385.438 1501.7 359.455C1501.96 333.943 1492.32 309.324 1474.81 290.772C1466.64 281.42 1456.52 273.964 1445.17 268.928C1433.82 263.891 1421.5 261.394 1409.08 261.611L1409 261.697ZM963.83 549.92C938.243 550.626 912.775 546.184 888.937 536.859C865.099 527.534 843.377 513.515 825.061 495.634C806.907 477.775 792.642 456.355 783.163 432.72C773.683 409.084 769.194 383.743 769.976 358.289C769.065 333.163 773.505 308.13 783.001 284.85C792.498 261.569 806.835 240.574 825.061 223.254C843.514 205.613 865.276 191.798 889.093 182.607C912.91 173.416 938.31 169.03 963.83 169.702C989.135 168.986 1014.33 173.357 1037.91 182.556C1061.5 191.755 1082.99 205.594 1101.13 223.254C1119.36 240.574 1133.69 261.569 1143.19 284.85C1152.69 308.13 1157.13 333.163 1156.22 358.289C1156.99 383.732 1152.5 409.061 1143.02 432.685C1133.54 456.309 1119.28 477.718 1101.13 495.57C1083.14 513.479 1061.68 527.535 1038.08 536.88C1014.47 546.224 989.208 550.661 963.83 549.92ZM963.83 263.251C951.6 262.918 939.436 265.164 928.13 269.842C916.825 274.52 906.631 281.527 898.212 290.405C881.618 309.064 872.723 333.326 873.325 358.289C872.415 370.765 874.075 383.295 878.202 395.103C882.33 406.911 888.837 417.747 897.321 426.939C905.805 436.131 916.085 443.484 927.525 448.543C938.965 453.602 951.322 456.259 963.83 456.35C976.006 456.539 988.079 454.102 999.228 449.204C1010.38 444.306 1020.34 437.062 1028.43 427.966C1044.77 408.481 1053.46 383.712 1052.87 358.289C1053.82 346.072 1052.22 333.79 1048.16 322.226C1044.11 310.662 1037.69 300.071 1029.31 291.127C1020.93 282.183 1010.78 275.083 999.509 270.28C988.235 265.476 976.084 263.075 963.83 263.229V263.251ZM599.153 217.987C633.793 186.655 679.189 169.9 725.878 171.213V270.784C702.319 270.346 678.92 274.74 657.125 283.694C635.33 292.648 615.6 305.973 599.153 322.847V538.696H494.294V177.235H599.153V217.987ZM239.592 538.588H0V25.6226H227.57C336.206 25.6226 401.069 76.1097 401.069 160.658C401.197 185.134 394.362 209.142 381.362 229.881C369.306 249.622 351.041 264.806 329.429 273.051C357.731 278.21 382.989 293.994 400.033 317.17C416.184 340.794 424.491 368.901 423.776 397.509C423.69 483.223 351.445 538.588 239.592 538.588ZM109.392 330.38V444.37H232.081C254.306 445.554 276.333 439.643 294.979 427.491C301.817 422.523 307.351 415.975 311.11 408.405C314.868 400.835 316.74 392.468 316.564 384.019C316.564 349.483 287.619 330.466 235.081 330.466L109.392 330.38ZM109.392 119.906V237.608H213.216C265.796 237.608 298.454 213.865 298.454 175.746C298.454 138.706 269.768 119.906 213.216 119.906H109.392Z" fill="white"/>
</svg>
